<svg viewBox="0 0 414 666" fill="none" preserveAspectRatio="none" xmlns="http://www.w3.org/2000/svg">
<mask id="mask0" mask-type="alpha" maskUnits="userSpaceOnUse" x="0" y="0" width="414" height="666">
<rect width="414" height="666" />
</mask>
<g mask="url(#mask0)">
<path d="M360.402 46.3458C362.873 30.6399 364.428 14.7971 366.487 -1H870V667H32H31C55.5708 646.82 77.0827 622.074 98.6794 598.744C120.23 575.322 140.637 550.85 159.855 525.465C198.198 474.695 232.011 420.455 260.288 363.476C267.609 349.322 274.198 334.849 280.878 320.422C284.173 313.162 287.147 305.812 290.304 298.507L294.971 287.549L299.272 276.454C311.169 246.96 320.915 216.644 330.066 186.192C334.138 170.805 338.805 155.602 342.145 140.033L347.59 116.794L352.212 93.3719C355.643 77.8031 357.748 62.0516 360.402 46.3458Z"/>
</g>
</svg>
