<svg viewBox="0 0 541 970" fill="none" xmlns="http://www.w3.org/2000/svg">
<path d="M38.6667 969.5C68.5714 944.939 95.3566 915.731 121.742 886.958C126.785 881.46 131.813 875.977 136.845 870.545C168.156 836.547 197.805 801.024 225.726 764.176C281.436 690.477 330.565 611.742 371.648 529.031L371.652 529.024C381.079 510.815 389.671 492.241 398.265 473.661C399.365 471.283 400.465 468.905 401.567 466.527C404.627 459.791 407.493 453.009 410.363 446.216C411.983 442.384 413.604 438.548 415.261 434.716L38.6667 969.5ZM38.6667 969.5H0.5V0.5H525.877C524.847 8.42744 523.903 16.3563 522.96 24.2788C521.193 39.1152 519.43 53.9294 517.109 68.67C515.985 75.3153 514.929 81.9616 513.875 88.6025C511.306 104.775 508.743 120.915 505.21 136.929L505.208 136.94L498.495 170.934L498.491 170.951L490.581 204.679L490.579 204.688C487.238 220.244 482.987 235.54 478.728 250.86C476.802 257.787 474.875 264.72 473.03 271.684C459.732 315.897 445.573 359.899 428.292 402.703L428.29 402.71L422.044 418.805L422.038 418.82L415.262 434.714L38.6667 969.5Z" />
</svg>
