<svg viewBox="0 0 768 239" fill="none" preserveAspectRatio="none" xmlns="http://www.w3.org/2000/svg">
<path d="M54.4337 234.968C36.3767 236.605 18.1622 237.636 0.00019815 239L-2.84408e-06 0.500015L768 0.500006L768 17.3849L768 16.7223C744.799 33.0018 716.348 47.2545 689.525 61.5634C662.597 75.842 634.462 89.3628 605.277 102.095C546.907 127.5 484.547 149.903 419.038 168.638C402.766 173.488 386.126 177.854 369.539 182.28C361.193 184.462 352.741 186.433 344.343 188.525L331.745 191.617L318.99 194.467C285.08 202.349 250.226 208.806 215.214 214.869C197.525 217.567 180.045 220.659 162.146 222.872L135.428 226.48L108.499 229.542C90.5999 231.815 72.4907 233.21 54.4337 234.968Z"/>
</svg>
