<svg width="68" height="86" viewBox="0 0 68 86" fill="none" xmlns="http://www.w3.org/2000/svg">
<path d="M68 34.3132C68 53.2639 34 86 34 86C34 86 0 53.2639 0 34.3132C0 15.3625 15.2223 0 34 0C52.7777 0 68 15.3625 68 34.3132Z" fill="#1A2941"/>
<path d="M12.1954 56.163C12.2604 56.163 12.3142 56.1452 12.3574 56.1089C12.4002 56.073 12.4326 56.0281 12.4543 55.9747C12.4764 55.9213 12.4873 55.8632 12.4873 55.7999C12.4873 55.7365 12.4764 55.6785 12.4543 55.6251C12.4326 55.5716 12.3999 55.5274 12.3574 55.4921C12.3142 55.4569 12.2604 55.439 12.1954 55.439L11.5552 55.4413V56.9549H11.2158V55.3711H12.3993C12.4942 55.3711 12.5737 55.3922 12.6377 55.4344C12.702 55.4766 12.7499 55.5297 12.7815 55.5937C12.8132 55.658 12.829 55.727 12.829 55.8009C12.829 55.8747 12.8132 55.9437 12.7815 56.008C12.7499 56.0723 12.702 56.1254 12.6377 56.1676C12.5734 56.2099 12.4939 56.231 12.3993 56.231H12.3518L12.8607 56.9549H12.4718L11.9177 56.163H12.1954Z" fill="#FCFCFC"/>
<path d="M16.8809 56.9549V55.3711H18.1771V55.439H17.2203V56.163H17.7905L17.743 56.231H17.2206V56.887H18.3133V56.9549H16.8809Z" fill="#FCFCFC"/>
<path d="M23.2819 55.3938C23.2275 55.3938 23.1727 55.3967 23.117 55.4027C23.0609 55.4086 23.0108 55.4218 22.9663 55.4422C22.9221 55.4627 22.8851 55.492 22.8564 55.5306C22.8281 55.5689 22.8129 55.6207 22.8112 55.6857C22.8096 55.749 22.8287 55.8008 22.869 55.8407C22.9089 55.8806 22.9617 55.9132 23.0273 55.939C23.0929 55.9647 23.1678 55.9851 23.2522 56C23.3367 56.0152 23.4228 56.0307 23.5102 56.0465C23.5976 56.0623 23.684 56.0808 23.7694 56.1019C23.8545 56.123 23.93 56.1514 23.9957 56.1867C24.0613 56.222 24.1144 56.2668 24.1553 56.3212C24.1959 56.3757 24.2163 56.4449 24.2163 56.5294C24.2163 56.623 24.1893 56.6999 24.1352 56.7599C24.0808 56.8203 24.0102 56.8681 23.9234 56.9037C23.8367 56.939 23.7384 56.9641 23.6282 56.9786C23.5181 56.9928 23.4066 57 23.2935 57C23.215 57 23.1302 56.9931 23.0388 56.9796C22.9475 56.9661 22.8578 56.9443 22.7694 56.9139C22.6813 56.8839 22.5985 56.8443 22.5217 56.7952C22.4448 56.7464 22.3821 56.6864 22.334 56.6154H22.6374C22.6628 56.6652 22.6981 56.7098 22.7426 56.749C22.7872 56.7883 22.8376 56.8216 22.8944 56.8486C22.9508 56.8757 23.0134 56.8965 23.081 56.911C23.149 56.9255 23.2199 56.9324 23.2938 56.9324C23.3964 56.9294 23.4824 56.9182 23.5517 56.8984C23.621 56.879 23.6764 56.8506 23.7179 56.8137C23.7592 56.7767 23.7892 56.7306 23.8073 56.6758C23.8255 56.6207 23.8344 56.5564 23.8344 56.4822C23.8344 56.4113 23.8143 56.3526 23.7743 56.3057C23.7344 56.2589 23.6817 56.221 23.616 56.1913C23.5504 56.1619 23.4752 56.1382 23.3908 56.12C23.3063 56.1019 23.2202 56.0861 23.1328 56.0725C23.0454 56.059 22.9593 56.0445 22.8752 56.0297C22.7908 56.0145 22.7156 55.9954 22.65 55.9719C22.5843 55.9485 22.5312 55.9182 22.4903 55.8803C22.4498 55.8427 22.4293 55.7942 22.4293 55.7355C22.4293 55.6797 22.4438 55.6312 22.4735 55.5897C22.5029 55.5481 22.5418 55.5125 22.5899 55.4821C22.6381 55.4521 22.6932 55.4267 22.7552 55.4063C22.8169 55.3858 22.8795 55.3697 22.9429 55.3578C23.0062 55.3456 23.0675 55.3373 23.1262 55.3327C23.1849 55.3281 23.2374 55.3258 23.2822 55.3258C23.3607 55.3258 23.4422 55.3327 23.5266 55.3463C23.6111 55.3598 23.6929 55.3819 23.772 55.4119C23.8512 55.4422 23.9261 55.4815 23.996 55.5306C24.0659 55.5798 24.1253 55.6395 24.1738 55.7104H23.8703C23.8176 55.6091 23.7433 55.5313 23.6477 55.4762C23.5517 55.4211 23.43 55.3938 23.2819 55.3938Z" fill="#FCFCFC"/>
<path d="M28.2354 55.3711H28.5747V56.9549H28.2354V55.3711Z" fill="#FCFCFC"/>
<path d="M32.5928 55.3711H33.3847C33.4932 55.3711 33.6014 55.3866 33.7093 55.4176C33.8171 55.4486 33.9141 55.4964 34.0002 55.5611C34.0863 55.6261 34.1559 55.7079 34.2093 55.8065C34.2627 55.9051 34.2894 56.0232 34.2894 56.1604C34.2894 56.2992 34.2627 56.4183 34.2093 56.5179C34.1559 56.6175 34.0863 56.6997 34.0002 56.7646C33.9141 56.8296 33.8171 56.8774 33.7093 56.9084C33.6014 56.9395 33.4932 56.9546 33.3847 56.9546H32.5928V55.3711ZM33.2716 56.887C33.3666 56.887 33.4553 56.8722 33.5374 56.8428C33.6195 56.8135 33.6914 56.7689 33.7525 56.7092C33.8135 56.6495 33.8616 56.5747 33.8973 56.484C33.9326 56.3936 33.9507 56.2864 33.9507 56.1627C33.9507 56.0449 33.9329 55.9414 33.8973 55.8517C33.862 55.7619 33.8135 55.6864 33.7525 55.6254C33.6911 55.5644 33.6195 55.5179 33.5374 55.4862C33.4553 55.4545 33.3666 55.4387 33.2716 55.4387H32.9325V56.8867H33.2716V56.887Z" fill="#FCFCFC"/>
<path d="M38.3115 56.9549V55.3711H39.6077V55.439H38.6509V56.163H39.2212L39.1737 56.231H38.6512V56.887H39.744V56.9549H38.3115Z" fill="#FCFCFC"/>
<path d="M43.7666 55.3711H43.8345V56.9549H43.7666V55.3711ZM44.9972 56.9549L43.8797 55.3711H44.2686L45.3185 56.86V55.3711H45.3864V56.9549H44.9972Z" fill="#FCFCFC"/>
<path d="M51.3084 56.622C51.2586 56.6916 51.1989 56.7503 51.1296 56.7985C51.0604 56.8466 50.9858 56.8855 50.907 56.9149C50.8278 56.9442 50.7467 56.9657 50.6636 56.9795C50.5805 56.9931 50.5006 57 50.4238 57C50.3516 57 50.276 56.9947 50.1975 56.9842C50.119 56.9736 50.0422 56.9558 49.967 56.9311C49.8915 56.906 49.8199 56.8727 49.7516 56.8305C49.6833 56.7882 49.6236 56.7361 49.5719 56.6741C49.5204 56.6124 49.4792 56.5395 49.4488 56.4558C49.4185 56.372 49.4033 56.275 49.4033 56.1649C49.4033 56.0547 49.4185 55.9571 49.4488 55.872C49.4792 55.7869 49.5201 55.7133 49.5719 55.6513C49.6233 55.5896 49.6833 55.5379 49.7516 55.4963C49.8199 55.4547 49.8915 55.4211 49.967 55.3957C50.0422 55.37 50.119 55.3518 50.1975 55.3413C50.276 55.3307 50.3516 55.3254 50.4238 55.3254C50.5023 55.3254 50.5838 55.3324 50.6682 55.3459C50.7526 55.3594 50.8348 55.3815 50.9136 55.4115C50.9927 55.4419 51.0676 55.4811 51.1375 55.5303C51.2075 55.5794 51.2668 55.6391 51.3153 55.71H51.0119C50.9591 55.6088 50.8849 55.5309 50.7892 55.4758C50.6933 55.4208 50.5716 55.3934 50.4238 55.3934C50.306 55.3934 50.2048 55.4102 50.1194 55.4442C50.0339 55.4781 49.9634 55.528 49.9076 55.5936C49.8519 55.6592 49.8107 55.7394 49.7833 55.8347C49.7559 55.9297 49.7427 56.0392 49.7427 56.1629C49.7411 56.4103 49.7955 56.5999 49.9056 56.7318C50.0158 56.8638 50.1886 56.9304 50.4238 56.932C50.5702 56.9337 50.6913 56.907 50.7869 56.8529C50.8826 56.7985 50.9568 56.7216 51.0096 56.622H51.3084Z" fill="#FCFCFC"/>
<path d="M55.3359 56.9549V55.3711H56.6322V55.439H55.6753V56.163H56.2456L56.1981 56.231H55.6757V56.887H56.7684V56.9549H55.3359Z" fill="#FCFCFC"/>
<path d="M18.2504 48.1435C20.6648 48.6461 20.5141 52.7538 17.7514 52.7538H11.2158V44.1707H17.1706C19.3762 44.1707 19.736 47.0399 18.2501 48.0208V48.1435H18.2504ZM16.126 48.0946C17.9717 48.0946 17.9717 44.5265 16.126 44.5265L12.957 44.5387V48.0946H16.126ZM12.957 52.3861L16.7065 52.3983C18.703 52.4105 18.703 48.4624 16.7065 48.4624H12.957V52.3861Z" fill="#FCFCFC"/>
<path d="M21.0684 52.7551V44.1719H28.0944V44.5396H22.9078V48.4633H25.9977L25.7401 48.8311H22.9075V52.387H28.8296V52.7547H21.0684V52.7551Z" fill="#FCFCFC"/>
<path d="M35.2528 48.4633C37.3367 48.4633 37.3367 44.5152 35.2528 44.5274L31.8242 44.5396V52.7551H30.0068V44.1719H36.3432C39.4083 44.1719 39.4205 48.8311 36.3432 48.8311H36.0889L38.815 52.7547H36.7311L33.7629 48.4633H35.2528Z" fill="#FCFCFC"/>
<path d="M40.2471 52.7551V44.1719H47.2731V44.5396H42.0865V48.4633H45.1764L44.9188 48.8311H42.0862V52.387H48.0083V52.7547H40.2471V52.7551Z" fill="#FCFCFC"/>
<path d="M55.2065 48.8125H52.9878L53.217 48.4613H56.7689V50.837C55.8626 52.2764 53.9251 52.7916 52.5088 52.7916C50.4985 52.7916 47.8213 51.8905 47.8213 48.4731C47.8318 45.0323 50.5087 44.1312 52.5088 44.1312C53.9462 44.1312 55.7171 44.6461 56.6129 46.1208H55.2171C54.7378 45.0792 53.8628 44.4825 52.5088 44.4825C50.3422 44.4825 49.384 45.9103 49.3735 48.4616C49.3629 51.0128 50.3422 52.4288 52.5088 52.4407C53.842 52.4522 54.7276 51.8555 55.2065 50.8374V48.8125Z" fill="#FCFCFC"/>
<path d="M22.5039 36.9598C23.2381 36.2157 24.095 35.6138 24.9826 35.0613C25.4298 34.7902 25.8936 34.5471 26.3616 34.3076C26.5964 34.1902 26.8376 34.0857 27.0777 33.9785L27.8086 33.6803C29.7747 32.9207 31.8952 32.5054 34.0279 32.4903C36.1612 32.4711 38.2942 32.8824 40.264 33.6467C42.2288 34.4264 44.0376 35.5462 45.5455 36.9664L45.4934 37.0429C45.0607 36.7741 44.6379 36.4888 44.1969 36.2342L43.5296 35.8625C43.4178 35.8014 43.3083 35.7365 43.1948 35.6787L42.8512 35.5125L42.1654 35.1771C41.9332 35.0732 41.6971 34.9785 41.4629 34.8789C40.9988 34.6691 40.5117 34.5191 40.0341 34.3449C38.099 33.7199 36.0669 33.3943 34.0338 33.4158C32.002 33.4303 29.9716 33.7581 28.0345 34.3825C27.0648 34.6906 26.1182 35.0712 25.2013 35.5128C24.2837 35.9509 23.3875 36.4473 22.5593 37.0337L22.5039 36.9598Z" fill="#FCFCFC"/>
<path d="M48.7248 33.7419C47.7284 33.1585 46.8428 32.421 45.98 31.6584C45.5594 31.2666 45.1461 30.8648 44.7457 30.4499C44.5422 30.2454 44.3493 30.031 44.1593 29.8146C43.9663 29.6006 43.7777 29.3822 43.5926 29.1609C42.1101 27.393 40.8207 25.451 39.7923 23.3763C38.7474 21.31 37.971 19.1106 37.4403 16.8665C36.9251 14.6183 36.6649 12.3142 36.7655 10.0261L36.8578 10.0172C36.9307 10.5779 36.9861 11.1406 37.0735 11.6987C37.1669 12.2561 37.2427 12.8162 37.3631 13.3686L37.5261 14.2001L37.719 15.025C37.8381 15.5775 38.0033 16.1181 38.1471 16.6643C38.4714 17.7458 38.8167 18.8224 39.2389 19.8702L39.3916 20.2651L39.5572 20.6549C39.6686 20.9142 39.7752 21.1757 39.8906 21.4333C40.1278 21.9459 40.3606 22.4601 40.6199 22.9617C41.6222 24.9853 42.8202 26.9115 44.1801 28.715C44.8605 29.6164 45.5842 30.4855 46.3477 31.3173C47.1136 32.1459 47.9114 32.9526 48.7812 33.6687L48.7248 33.7419Z" fill="#FCFCFC"/>
<path d="M19.3201 33.7247C20.3165 33.1413 21.2021 32.4038 22.0649 31.6412C22.4855 31.2494 22.8987 30.8476 23.2992 30.4327C23.5027 30.2282 23.6956 30.0138 23.8856 29.7974C24.0785 29.5834 24.2672 29.365 24.4522 29.1437C25.9348 27.3758 27.2241 25.4338 28.2526 23.3591C29.2975 21.2927 30.0739 19.0934 30.6046 16.8493C31.1198 14.6011 31.38 12.2969 31.2794 10.0089L31.1871 10C31.1142 10.5607 31.0588 11.1234 30.9713 11.6815C30.878 12.2389 30.8021 12.7989 30.6818 13.3514L30.5188 14.1829L30.3259 15.0078C30.2068 15.5603 30.0416 16.1009 29.8977 16.6471C29.5735 17.7286 29.2282 18.8052 28.806 19.853L28.6533 20.2478L28.4877 20.6377C28.3762 20.897 28.2697 21.1585 28.1543 21.4161C27.9171 21.9287 27.6843 22.4429 27.425 22.9445C26.4227 24.9681 25.2247 26.8943 23.8648 28.6978C23.1844 29.5992 22.4607 30.4683 21.6972 31.3001C20.9313 32.1287 20.1334 32.9354 19.2637 33.6515L19.3201 33.7247Z" fill="#FCFCFC"/>
</svg>
