<svg width="40" height="50" viewBox="0 0 40 50" fill="none" xmlns="http://www.w3.org/2000/svg">
<path d="M40 19.9495C40 30.9674 20 50 20 50C20 50 0 30.9674 0 19.9495C0 8.93171 8.95431 0 20 0C31.0457 0 40 8.93171 40 19.9495Z" fill="#CFA46E"/>
<path d="M24.8491 15.6616C22.1338 12.8391 17.7315 12.8391 15.0162 15.6616C12.301 18.4842 12.301 23.0605 15.0162 25.8831C17.7315 28.7056 22.1338 28.7056 24.8491 25.8831C27.5643 23.0605 27.5643 18.4842 24.8491 15.6616ZM23.8975 16.6508C26.0872 18.9271 26.0872 22.6176 23.8975 24.8939C21.7078 27.1702 18.1575 27.1702 15.9678 24.8939C13.7781 22.6176 13.7781 18.9271 15.9678 16.6508C18.1575 14.3745 21.7078 14.3745 23.8975 16.6508ZM23.62 16.9393C21.5835 14.8224 18.2818 14.8224 16.2453 16.9393C14.2089 19.0562 14.2089 22.4885 16.2453 24.6054C18.2818 26.7223 21.5835 26.7223 23.62 24.6054C25.6564 22.4885 25.6564 19.0562 23.62 16.9393ZM10.8325 18.371L10.2483 27.3157C10.2483 27.3157 10.447 28 11.2416 28C12.0362 28 12.2348 27.3157 12.2348 27.3157L11.6506 18.371C12.1628 18.1744 12.4832 17.6748 12.4832 17.6748V16.3841V16.126V13.2866C12.4832 13.144 12.372 13.0284 12.2348 13.0284C12.0977 13.0284 11.9865 13.144 11.9865 13.2866V16.126C11.9865 16.126 11.9865 16.3841 11.7382 16.3841C11.4899 16.3841 11.4899 16.126 11.4899 16.126V13.2866C11.4899 13.144 11.3787 13.0284 11.2416 13.0284C11.1044 13.0284 10.9933 13.144 10.9933 13.2866V16.126C10.9933 16.126 10.9933 16.3841 10.7449 16.3841C10.4966 16.3841 10.4966 16.126 10.4966 16.126V13.2866C10.4966 13.144 10.3855 13.0284 10.2483 13.0284C10.1112 13.0284 10 13.144 10 13.2866V16.126V16.3841V17.6748C10 17.6748 10.3204 18.1744 10.8325 18.371ZM29.7411 13.0274C29.2445 12.7692 27.9863 14.358 27.7379 16.9393C27.4896 19.5206 28.4858 19.6678 28.4858 19.6678L27.9863 27.3157C27.9863 27.3157 28.1849 28 28.9795 28C29.7741 28 29.9728 27.3157 29.9728 27.3157L29.7411 19.6678V13.0274Z" fill="#1D222B"/>
</svg>
