<svg width="19" height="21" viewBox="0 0 19 21" fill="none" xmlns="http://www.w3.org/2000/svg">
<path d="M15.8217 8.75684H15.8271C17.3968 6.51433 18.8653 4.42652 18.8653 4.42652C19.1257 4.04779 18.9029 3.73885 18.367 3.73885H7.43208C7.63433 2.20099 6.4594 0.687926 4.94933 0.191681C3.36159 -0.330272 1.554 0.243096 0.619917 1.55463C-0.317585 2.86938 -0.178352 4.66431 0.946748 5.83997C2.18177 7.13085 4.30593 7.37461 5.83016 6.38487C7.47653 8.7573 9.1488 11.1146 10.8044 13.481V17.6948C9.96612 17.7622 7.00803 18.1768 7.45406 19.5452C7.627 20.0736 8.28164 20.3752 8.78581 20.5584C9.69303 20.8875 10.6916 21 11.6594 21C12.5837 21 13.53 20.8958 14.4045 20.6034C14.9458 20.422 15.6791 20.1136 15.8637 19.5457C16.3098 18.1772 13.3512 17.7627 12.5134 17.6952V13.481C13.1968 12.5042 14.5442 10.5807 15.8217 8.75684ZM5.22633 2.25791C5.07098 2.47413 4.74805 2.53289 4.51795 2.38691C4.20676 2.18951 3.81739 2.11515 3.44904 2.18217C2.83592 2.29326 2.35862 2.78675 2.29902 3.37068C2.2702 3.64933 2.33713 3.93303 2.48759 4.17449C2.6493 4.43616 3.04404 4.59591 3.09729 4.90302C3.14859 5.19177 2.90383 5.46078 2.59361 5.46078C2.24821 5.46078 1.93213 5.09721 1.746 4.8585C0.967267 3.85866 1.19004 2.42364 2.23404 1.67169C2.70255 1.33428 3.29417 1.16673 3.88334 1.20299C4.35087 1.23237 5.7178 1.57529 5.22633 2.25791ZM6.68168 5.85512C6.36609 5.40799 6.08811 5.01366 5.86632 4.69782H17.451C16.94 5.42498 16.1373 6.56942 15.2751 7.7997C14.5867 7.77766 13.9643 7.61745 13.3785 7.27637C12.933 7.017 12.5075 6.7333 12.0258 6.53086C10.5167 5.89551 8.67736 5.95703 7.16924 6.55243C6.99923 6.31097 6.83704 6.0796 6.68168 5.85512C6.36658 5.40845 6.83704 6.0796 6.68168 5.85512Z" />
</svg>
