<svg width="20" height="15" viewBox="0 0 20 15" fill="none" xmlns="http://www.w3.org/2000/svg">
<path d="M14.8491 2.66164C12.1338 -0.16094 7.7315 -0.16094 5.01624 2.66164C2.30097 5.48421 2.30097 10.0605 5.01624 12.8831C7.7315 15.7056 12.1338 15.7056 14.8491 12.8831C17.5643 10.0605 17.5643 5.48421 14.8491 2.66164ZM13.8975 3.65081C16.0872 5.92707 16.0872 9.61763 13.8975 11.8939C11.7078 14.1702 8.15753 14.1702 5.96781 11.8939C3.77807 9.61763 3.77807 5.92707 5.96781 3.65081C8.15753 1.37453 11.7078 1.37453 13.8975 3.65081ZM13.62 3.93932C11.5835 1.82238 8.28179 1.82238 6.24535 3.93932C4.20889 6.05624 4.20889 9.48846 6.24535 11.6054C8.28179 13.7223 11.5835 13.7223 13.62 11.6054C15.6564 9.48846 15.6564 6.05624 13.62 3.93932ZM0.832521 5.37101L0.248316 14.3157C0.248316 14.3157 0.446969 15 1.24158 15C2.03619 15 2.23485 14.3157 2.23485 14.3157L1.65064 5.37101C2.16276 5.17438 2.48316 4.67479 2.48316 4.67479V3.38414V3.12601V0.286579C2.48316 0.144018 2.37199 0.0284489 2.23485 0.0284489C2.0977 0.0284489 1.98653 0.144018 1.98653 0.286579V3.12601C1.98653 3.12601 1.98653 3.38414 1.73821 3.38414C1.4899 3.38414 1.4899 3.12601 1.4899 3.12601V0.286579C1.4899 0.144018 1.37872 0.0284489 1.24158 0.0284489C1.10444 0.0284489 0.993265 0.144018 0.993265 0.286579V3.12601C0.993265 3.12601 0.993265 3.38414 0.744949 3.38414C0.496632 3.38414 0.496632 3.12601 0.496632 3.12601V0.286579C0.496632 0.144018 0.385458 0.0284489 0.248316 0.0284489C0.111175 0.0284489 0 0.144018 0 0.286579V3.12601V3.38414V4.67479C0 4.67479 0.320398 5.17438 0.832521 5.37101ZM19.7411 0.0273567C19.2445 -0.230773 17.9863 1.358 17.7379 3.9393C17.4896 6.52061 18.4858 6.66779 18.4858 6.66779L17.9863 14.3157C17.9863 14.3157 18.1849 15 18.9795 15C19.7741 15 19.9728 14.3157 19.9728 14.3157L19.7411 6.66779V0.0273567Z"/>
</svg>
