<svg width="341" height="313" viewBox="0 0 341 313" fill="none" xmlns="http://www.w3.org/2000/svg">
<path d="M170.542 260.568L170.543 260.568C195.122 260.348 219.701 265.08 242.4 273.875C264.909 282.796 285.636 295.582 302.945 311.782L302.854 311.915C301.25 310.916 299.652 309.895 298.051 308.872C294.823 306.811 291.585 304.742 288.268 302.829L288.261 302.825L280.553 298.537L280.549 298.535C280.1 298.29 279.648 298.036 279.193 297.781C278.362 297.314 277.52 296.841 276.668 296.408L276.659 296.404L272.691 294.487L272.689 294.486L264.769 290.617L264.761 290.613L264.753 290.61C262.995 289.824 261.212 289.081 259.435 288.342C258.498 287.952 257.563 287.562 256.634 287.168C252.797 285.436 248.813 284.051 244.856 282.675C243.262 282.121 241.672 281.569 240.098 280.995L240.089 280.992L240.08 280.989C217.676 273.763 194.147 269.998 170.603 270.246C147.08 270.413 123.573 274.204 101.147 281.423C89.9211 284.984 78.9638 289.385 68.3513 294.489C57.88 299.481 47.6409 305.134 38.1549 311.798L38.0656 311.679C46.439 303.277 56.1859 296.446 66.3031 290.157C71.4522 287.04 76.7945 284.243 82.1984 281.481C84.4536 280.355 86.7582 279.333 89.0766 278.304C89.5312 278.102 89.9863 277.9 90.4416 277.697L98.8736 274.262C121.531 265.521 145.967 260.742 170.542 260.568Z" stroke="#E2E3E4"/>
<path d="M294.739 236.185L294.733 236.179C292.393 233.831 290.172 231.367 287.98 228.873L287.975 228.868C285.751 226.404 283.576 223.889 281.441 221.34L281.441 221.34C264.337 200.972 249.464 178.599 237.602 154.701L237.6 154.697C225.548 130.896 216.592 105.56 210.469 79.7035C204.558 53.9453 201.559 27.5564 202.667 1.35417L202.819 1.3395C203.09 3.44934 203.342 5.56677 203.595 7.68652C204.095 11.8864 204.596 16.0954 205.251 20.2725L205.251 20.2725L205.252 20.2777C205.553 22.0772 205.84 23.883 206.127 25.6911C206.861 30.3223 207.598 34.9686 208.601 39.5629L210.482 49.151L210.484 49.1599L210.486 49.1687L212.714 58.6817C213.656 63.0458 214.85 67.3556 216.039 71.6495C216.59 73.6391 217.141 75.6253 217.664 77.6119L217.666 77.6201L217.669 77.6282C221.416 90.1096 225.41 102.546 230.295 114.656C230.296 114.657 230.296 114.658 230.297 114.659L232.058 119.208L232.061 119.215L232.064 119.223L233.977 123.721L233.978 123.723C234.437 124.789 234.891 125.863 235.345 126.939C236.16 128.867 236.977 130.801 237.833 132.711L237.836 132.716C238.207 133.517 238.578 134.319 238.948 135.122C241.309 140.233 243.675 145.353 246.268 150.365C257.862 173.739 271.718 195.987 287.445 216.818L287.445 216.818C295.316 227.23 303.686 237.27 312.518 246.879L312.519 246.88C321.264 256.328 330.38 265.542 340.308 273.747L340.221 273.859C328.91 267.19 318.826 258.8 308.974 250.105C304.122 245.59 299.356 240.963 294.739 236.185Z" stroke="#E2E3E4"/>
<path d="M46.2663 235.977L46.261 235.983C41.644 240.761 36.8778 245.388 32.0263 249.902C22.174 258.598 12.0897 266.987 0.778394 273.657L0.691546 273.544C10.6197 265.339 19.7355 256.125 28.4803 246.678L28.4814 246.676C37.3135 237.068 45.6838 227.028 53.5543 216.615L53.5545 216.615C69.2821 195.785 83.1375 173.537 94.7313 150.163C97.3247 145.151 99.6901 140.031 102.051 134.92C102.422 134.117 102.792 133.315 103.164 132.514L103.166 132.508C104.023 130.599 104.84 128.665 105.654 126.737C106.109 125.661 106.562 124.587 107.022 123.521L107.023 123.519L108.935 119.021L108.939 119.013L108.941 119.006L110.703 114.457C110.704 114.456 110.704 114.455 110.705 114.454C115.59 102.344 119.584 89.9072 123.331 77.4258L123.333 77.4177L123.335 77.4095C123.859 75.4229 124.409 73.4367 124.96 71.4471C126.15 67.1532 127.344 62.8433 128.286 58.4793C128.286 58.4778 128.286 58.4764 128.287 58.475L130.514 48.9664L130.516 48.9575L130.518 48.9486L132.398 39.3657C132.398 39.364 132.399 39.3623 132.399 39.3606C133.401 34.7664 134.138 30.12 134.873 25.4889C135.16 23.6807 135.446 21.8749 135.748 20.0753L135.749 20.0701C136.404 15.8932 136.905 11.6845 137.405 7.48488C137.657 5.36488 137.909 3.2472 138.181 1.1371L138.333 1.15177C139.441 27.3543 136.441 53.7435 130.531 79.502C124.408 105.358 115.451 130.693 103.399 154.495L103.398 154.498C91.5354 178.396 76.6628 200.769 59.5589 221.137L59.5584 221.138C57.4243 223.687 55.2488 226.201 53.0243 228.666L53.02 228.671C50.8273 231.165 48.6063 233.629 46.2663 235.977Z" stroke="#E2E3E4"/>
</svg>
