<svg width="210" height="45" viewBox="0 0 210 45" fill="none" xmlns="http://www.w3.org/2000/svg">
<g clip-path="url(#clip0)">
<path d="M29.1063 44.5516H14.0767C6.05327 44.5516 0 39.4094 0 30.8998C0 23.2028 6.20057 17.687 13.5704 17.687C20.9356 17.687 27.1407 23.2028 27.1407 30.8998C27.1407 36.3782 24.1854 39.2646 21.7043 40.7078V40.7825H29.1109V44.5516H29.1063ZM4.81499 31.0119C4.81499 36.3782 8.49759 40.3388 13.5335 40.3388C18.6385 40.3388 22.3257 36.3782 22.3257 31.0119C22.3257 25.795 18.68 21.9091 13.4645 21.9091C8.46076 21.9044 4.81499 25.7903 4.81499 31.0119Z" fill="#FCFCFC"/>
<path d="M48.0306 44.5516H43.8739V41.7026H43.8002C42.9993 43.4774 41.3559 44.9953 38.4374 44.9953C33.7329 44.9953 32.0527 41.6279 32.0527 37.9989V26.7898H36.4304V35.7805C36.4304 37.7421 36.5777 40.9974 39.6389 40.9974C42.5205 40.9974 43.6529 38.8536 43.6529 36.481V26.7898H48.0306V44.5516Z" fill="#FCFCFC"/>
<path d="M63.9295 42.1137H63.819C62.5807 44.1126 60.5369 45 58.2031 45C54.9578 45 51.8184 43.1879 51.8184 39.671C51.8184 33.8983 58.4562 33.492 62.8339 33.492H63.9295V33.0109C63.9295 30.8298 62.2493 29.6809 59.9155 29.6809C58.0926 29.6809 56.4124 30.4188 55.2478 31.5304L52.9508 29.1998C54.8841 27.2009 57.6184 26.3508 60.3896 26.3508C67.8653 26.3508 67.8653 31.8293 67.8653 34.342V44.5563H63.9249V42.1137H63.9295ZM63.6763 36.5978H62.7649C60.3574 36.5978 56.2006 36.7847 56.2006 39.3347C56.2006 40.9647 57.844 41.6653 59.2664 41.6653C62.2585 41.6653 63.6809 40.0727 63.6809 37.5973V36.5978H63.6763Z" fill="#FCFCFC"/>
<path d="M86.4303 41.8894H86.3567C85.0816 44.0332 82.7799 44.9999 80.3402 44.9999C74.9406 44.9999 71.6953 40.9273 71.6953 35.673C71.6953 30.4187 75.1616 26.3461 80.1561 26.3461C83.4382 26.3461 85.1874 27.9013 86.1035 29.0456H86.2139V16.5754H90.5916V44.5516H86.4349V41.8894H86.4303ZM81.2148 41.002C84.4233 41.002 86.3567 38.4473 86.3567 35.673C86.3567 32.8987 84.4233 30.344 81.2148 30.344C78.0064 30.344 76.073 32.8987 76.073 35.673C76.073 38.4473 78.0064 41.002 81.2148 41.002Z" fill="#FCFCFC"/>
<path d="M95.5449 26.7899H99.9226V29.6015H99.9963C100.945 27.5652 102.878 26.3462 105.175 26.3462C105.723 26.3462 106.234 26.4583 106.745 26.6031V30.8952C106.017 30.7131 105.322 30.5636 104.627 30.5636C100.507 30.5636 99.9226 34.0805 99.9226 35.0426V44.5517H95.5449V26.7899Z" fill="#FCFCFC"/>
<path d="M125.706 44.5516H121.55V41.7026H121.476C120.675 43.4774 119.032 44.9953 116.113 44.9953C111.409 44.9953 109.729 41.6279 109.729 37.9989V26.7898H114.106V35.7805C114.106 37.7421 114.254 40.9974 117.315 40.9974C120.196 40.9974 121.329 38.8536 121.329 36.481V26.7898H125.706V44.5516Z" fill="#FCFCFC"/>
<path d="M130.479 26.7899H134.635V29.5641H134.709C135.473 27.8968 137.153 26.3462 140.072 26.3462C142.769 26.3462 144.629 27.4204 145.545 29.6389C146.82 27.383 148.68 26.3462 151.308 26.3462C155.976 26.3462 157.619 29.7136 157.619 33.9684V44.5517H153.242V34.4868C153.242 32.2683 152.583 30.3394 149.996 30.3394C147.262 30.3394 146.24 32.6326 146.24 34.9305V44.5517H141.862V33.9684C141.862 31.7873 140.988 30.3394 138.87 30.3394C135.989 30.3394 134.856 32.4879 134.856 34.8558V44.5517H130.479V26.7899Z" fill="#FCFCFC"/>
<path d="M209.566 0H174.471V26.589H183.327V35.6077H209.566V0Z" fill="#B3BF22"/>
<path d="M174.471 26.5891H165.619V44.5517H183.328V35.6078H174.471V26.5891Z" fill="#6C823B"/>
<path d="M183.323 26.5891H174.471V35.6078H183.323V26.5891Z" fill="white"/>
</g>
<defs>
<clipPath id="clip0">
<rect width="210" height="45" fill="white"/>
</clipPath>
</defs>
</svg>
