<svg width="11" height="19" viewBox="0 0 11 19" fill="none" xmlns="http://www.w3.org/2000/svg">
<path d="M9 5.24062H9.75V4.49062V2.10563V1.45807L9.10937 1.36364C8.84783 1.32509 8.05261 1.25 7.13816 1.25C6.04221 1.25 5.05214 1.62429 4.34179 2.39958C3.63758 3.16817 3.28333 4.24826 3.28333 5.52437V6.875H2H1.25V7.625V10.2913V11.0413H2H3.28333V17V17.75H4.03333H6.52629H7.27629V17V11.0419H8.47738H9.1453L9.22237 10.3784L9.53209 7.71217L9.62927 6.87563H8.7871H7.27571V5.78932C7.27583 5.6232 7.28682 5.50404 7.30524 5.41829C7.32311 5.33507 7.34283 5.30792 7.34503 5.30503C7.34544 5.3045 7.34575 5.3041 7.34613 5.3037C7.34663 5.30317 7.34726 5.30264 7.3484 5.3018C7.35073 5.30008 7.36042 5.29331 7.38284 5.28464C7.43085 5.26608 7.533 5.24062 7.72202 5.24062H9Z" fill="transparent" stroke-width="1.5"/>
</svg>
