<svg width="18" height="18" viewBox="0 0 18 18" fill="none" xmlns="http://www.w3.org/2000/svg">
<path d="M9 0C4.02528 0 0 4.02564 0 9C0 13.9747 4.02564 18 9 18C13.9747 18 18 13.9744 18 9C18 4.02528 13.9743 0 9 0ZM9 16.5938C4.80259 16.5938 1.40625 13.1971 1.40625 9C1.40625 4.80259 4.80287 1.40625 9 1.40625C13.1974 1.40625 16.5938 4.80287 16.5938 9C16.5938 13.1974 13.1971 16.5938 9 16.5938Z" fill="#CFA46E"/>
<path d="M9 7.53491C8.61166 7.53491 8.29688 7.8497 8.29688 8.23804V12.7659C8.29688 13.1543 8.61166 13.469 9 13.469C9.38834 13.469 9.70312 13.1542 9.70312 12.7659V8.23804C9.70312 7.8497 9.38834 7.53491 9 7.53491Z" fill="#CFA46E"/>
<path d="M9 6.67407C9.52424 6.67407 9.94922 6.24909 9.94922 5.72485C9.94922 5.20061 9.52424 4.77563 9 4.77563C8.47576 4.77563 8.05078 5.20061 8.05078 5.72485C8.05078 6.24909 8.47576 6.67407 9 6.67407Z" fill="#CFA46E"/>
</svg>
