<svg width="19" height="19" viewBox="0 0 19 19" fill="none" xmlns="http://www.w3.org/2000/svg">
<path d="M16.5311 2.47117C16.089 2.02289 15.554 1.67421 14.9665 1.45285C14.4095 1.23768 13.7799 1.09108 12.8805 1.05137C12 1.00957 11.7161 1 9.50161 1C7.28657 1 7.00362 1.00958 6.12665 1.0481C5.22726 1.08776 4.59406 1.23441 4.03946 1.44981C3.44647 1.67411 2.91414 2.01942 2.47115 2.47211M16.5311 2.47117L16.5287 2.46879L16.2846 2.71865L16.5335 2.47356L16.5311 2.47117ZM16.5311 2.47117C16.9838 2.91415 17.3291 3.44647 17.5534 4.03932C17.769 4.5941 17.9155 5.22726 17.9551 6.12659C17.9937 7.0046 17.9969 7.28878 17.9969 9.50162C17.9969 11.7167 17.9873 11.9996 17.9488 12.8766C17.9091 13.7772 17.7621 14.4073 17.5467 14.9647C17.0877 16.1518 16.1491 17.0906 14.9619 17.5497M14.9619 17.5497L14.8356 17.224M14.9619 17.5497C14.407 17.7655 13.7735 17.9122 12.8735 17.9519C11.9965 17.9905 11.7135 18 9.4985 18C7.2835 18 7.00039 17.9905 6.12348 17.9519C5.22359 17.9122 4.59395 17.7656 4.03677 17.5504C3.44908 17.329 2.91383 16.9801 2.47164 16.5316M2.47164 16.5316L2.47356 16.5335L2.71865 16.2846L2.46974 16.5297L2.47164 16.5316ZM2.47164 16.5316C2.02342 16.0897 1.67468 15.5579 1.44994 14.9639C1.23441 14.4092 1.08776 13.776 1.04811 12.8766C1.00958 11.9997 1 11.7167 1 9.50162C1 7.28716 1.00957 7.00325 1.05137 6.12277C1.09108 5.22328 1.23769 4.59378 1.45286 4.03671C1.67431 3.44932 2.02284 2.91424 2.47115 2.47211M2.47115 2.47211L2.46879 2.47453L2.71865 2.71865L2.47356 2.46974L2.47115 2.47211Z" fill="transparent" stroke-width="1.5"/>
<path d="M9.50145 5.31323C7.18958 5.31323 5.31384 7.18885 5.31384 9.50084C5.31384 11.8128 7.18958 13.6884 9.50145 13.6884C11.8134 13.6884 13.6891 11.8128 13.6891 9.50084C13.6891 7.18885 11.8134 5.31323 9.50145 5.31323Z" fill="transparent" stroke-width="1.5"/>
<path fill-rule="evenodd" clip-rule="evenodd" d="M13.2663 4.57882C13.2663 4.0846 13.6669 3.68408 14.161 3.68408C14.6551 3.68408 15.0558 4.08458 15.0558 4.57882C15.0558 5.07295 14.6551 5.47356 14.161 5.47356C13.6669 5.47356 13.2663 5.07294 13.2663 4.57882Z" fill="transparent" stroke-width="1.5"/>
</svg>
