<svg width="22" height="19" viewBox="0 0 22 19" fill="none" xmlns="http://www.w3.org/2000/svg">
<path d="M15.6035 4.04227H20.7758L20.5144 7.17799C19.0626 6.80691 17.2322 5.92866 15.6035 4.04227ZM14.8743 4.04227H9.40138L10.2241 13.9189C10.2287 13.9701 10.2722 14.0132 10.3235 14.0132H19.8534C19.9048 14.0132 19.9485 14.0326 19.9526 13.9814L20.4682 7.7625C18.7326 7.35046 16.6312 6.19814 14.8743 4.04227ZM21.9056 0H8.13086V3.5033H14.4173C14.1818 3.23381 13.9541 2.96972 13.7366 2.65361C13.6138 2.70428 13.4792 2.79348 13.3383 2.79348C12.7603 2.79348 12.2903 2.32053 12.2903 1.7441C12.2903 1.16768 12.7603 0.690419 13.3383 0.690419C13.9163 0.690419 14.3865 1.14396 14.3865 1.72066C14.3865 1.96239 14.3006 2.15103 14.162 2.32835C14.464 2.77111 14.7851 3.23381 15.1155 3.5033H21.9056V0ZM13.2961 1.51693C13.4252 1.44228 13.5905 1.48405 13.6662 1.61206C13.7188 1.70126 13.7763 1.78318 13.8306 1.87022C13.8398 1.83196 13.846 1.79261 13.846 1.75165C13.846 1.47219 13.6181 1.24475 13.338 1.24475C13.0582 1.24475 12.8302 1.47219 12.8302 1.75165C12.8302 2.03084 13.0582 2.25828 13.338 2.25828C13.3693 2.25828 13.3998 2.25451 13.4298 2.24912C13.3534 2.12839 13.2742 2.01035 13.201 1.88612C13.1252 1.75785 13.1676 1.59265 13.2961 1.51693Z"/>
<path d="M1.01233 6.03745C0.907912 5.83621 0.974808 5.58218 1.16199 5.46969C1.34917 5.35743 1.58544 5.42935 1.69008 5.63059C1.79449 5.83183 1.7276 6.08586 1.54042 6.19835C1.35324 6.31061 1.11696 6.23869 1.01233 6.03745ZM9.36013 15.7232C9.35884 15.7239 9.35755 15.7239 9.35627 15.7246C9.35605 15.7248 9.35605 15.725 9.35584 15.7253C8.80888 16.4465 8.14571 17.044 7.38499 17.5009C6.61955 17.9603 5.79987 18.2522 4.94802 18.3713C4.91736 18.3879 4.88477 18.3969 4.85218 18.3969C4.77692 18.3969 4.70424 18.3543 4.66479 18.2787L3.41199 15.8668C3.06015 15.1898 2.97782 14.3975 3.17936 13.6354C3.30307 13.1677 3.52434 12.7514 3.82194 12.4114L1.22502 7.27831C1.14398 7.27001 1.06293 7.25664 0.982955 7.2322C0.635613 7.1264 0.347233 6.88159 0.171203 6.54251C-0.192006 5.8429 0.0417001 4.95588 0.692431 4.56539C1.0074 4.37613 1.37189 4.33003 1.71966 4.43561C2.06701 4.54141 2.35539 4.78622 2.53142 5.1253C2.70745 5.46416 2.75033 5.85649 2.65213 6.22993C2.64012 6.27511 2.62061 6.31614 2.60496 6.35948L5.24347 11.5541C5.66393 11.4564 6.10154 11.464 6.52607 11.5843C7.2289 11.783 7.80909 12.2643 8.15965 12.939L9.4431 15.4097C9.50056 15.5206 9.46347 15.6612 9.36013 15.7232ZM5.01663 12.9229C5.11998 12.8609 5.15707 12.7205 5.09939 12.6094C5.04172 12.4983 4.91093 12.4587 4.8078 12.5204C4.54171 12.6799 4.31787 12.898 4.1427 13.1682C4.01148 13.3706 3.91221 13.5965 3.84746 13.8404C3.69673 14.4104 3.75741 15.0005 4.01834 15.5026C4.05779 15.5782 4.13048 15.6208 4.20574 15.6208C4.24111 15.6208 4.27692 15.6114 4.30994 15.5916C4.41328 15.5293 4.45038 15.3889 4.3927 15.2781C4.18773 14.8837 4.14056 14.418 4.25998 13.9669C4.31144 13.7724 4.39034 13.5926 4.49454 13.4323C4.63219 13.2193 4.8078 13.0483 5.01663 12.9229ZM0.953796 5.0686C0.763829 5.18247 0.626608 5.36965 0.566787 5.59509C0.507396 5.82077 0.533125 6.05773 0.639043 6.26174C0.858169 6.68381 1.35646 6.83434 1.74925 6.59967C1.93922 6.48557 2.07666 6.29862 2.13605 6.07318C2.19544 5.84797 2.16971 5.61123 2.06336 5.40653C1.95701 5.20207 1.78313 5.05431 1.57344 4.99045C1.50032 4.96786 1.42528 4.9568 1.35002 4.9568C1.21237 4.95657 1.07537 4.99529 0.953796 5.0686Z"/>
</svg>
