<svg width="23" height="12" viewBox="0 0 23 12" fill="none" xmlns="http://www.w3.org/2000/svg">
<path d="M11.4996 0.5C4.94366 0.5 0 2.66398 0 5.53347C0 7.57766 2.46753 9.2877 6.60061 10.108C6.90197 10.1678 7.19223 9.95865 7.24857 9.64031C7.30518 9.32255 7.10704 9.01621 6.80568 8.95647C3.39881 8.28025 1.11 6.90466 1.11 5.53347C1.11 3.70687 5.37683 1.67146 11.4996 1.67146C17.6226 1.67146 21.8897 3.70658 21.8897 5.53347C21.8897 6.80831 19.9064 8.07026 16.9608 8.78544L17.9795 7.86145C18.212 7.65059 18.2384 7.28099 18.0386 7.03557C17.8391 6.79074 17.4891 6.76233 17.256 6.97319L14.6986 9.29297C14.6983 9.29327 14.6983 9.29327 14.698 9.29356L14.6944 9.29678C14.6936 9.29766 14.693 9.29854 14.6919 9.29941C14.6786 9.31171 14.6672 9.32636 14.655 9.34012C14.6434 9.35301 14.6309 9.36472 14.6203 9.37907C14.619 9.38083 14.6173 9.38259 14.6159 9.38435C14.6048 9.39987 14.5965 9.41715 14.5868 9.43355C14.5787 9.4476 14.5693 9.46049 14.5621 9.47543C14.5524 9.49534 14.5457 9.51672 14.5385 9.53751C14.5354 9.54571 14.5321 9.55391 14.5296 9.56241C14.5274 9.56885 14.5241 9.57471 14.5224 9.58144C14.5224 9.58203 14.5224 9.58232 14.5221 9.58261C14.5196 9.59169 14.5191 9.60107 14.5168 9.61014C14.5107 9.63914 14.5049 9.66784 14.5027 9.69742C14.5027 9.698 14.5027 9.69859 14.5024 9.69918C14.5021 9.70562 14.5032 9.71294 14.503 9.71938C14.5027 9.72758 14.5035 9.73578 14.5035 9.74369C14.5038 9.76624 14.5027 9.7885 14.5052 9.81076C14.5055 9.81281 14.5057 9.81486 14.506 9.81691C14.506 9.8172 14.506 9.81779 14.506 9.81837C14.5088 9.83975 14.5146 9.85966 14.5193 9.88017C14.5227 9.89422 14.5243 9.90857 14.5285 9.92263C14.5285 9.92322 14.5288 9.9238 14.5288 9.9241C14.5396 9.95924 14.5537 9.99292 14.5701 10.0245C14.5712 10.0269 14.5729 10.0289 14.574 10.031C14.5759 10.0345 14.5787 10.0374 14.5807 10.0409C14.5954 10.0667 14.6106 10.0916 14.6287 10.1145C14.6306 10.1168 14.632 10.1191 14.6339 10.1212C14.6345 10.1218 14.6348 10.1227 14.6353 10.1232C14.6398 10.1285 14.645 10.132 14.6495 10.1373C14.6509 10.1388 14.6525 10.1402 14.6539 10.1417C14.6692 10.1587 14.6842 10.1754 14.7011 10.1903C14.7069 10.1956 14.7125 10.2003 14.7186 10.205C14.7272 10.212 14.7363 10.2178 14.7455 10.224C14.7594 10.2339 14.773 10.2436 14.7874 10.2524C14.7966 10.258 14.8057 10.2626 14.8154 10.2676C14.8246 10.2723 14.8335 10.2767 14.8429 10.2808C14.8573 10.287 14.8718 10.2922 14.8865 10.2975C14.8928 10.2998 14.8987 10.3034 14.9051 10.3051L18.8189 11.4775C18.8697 11.4927 18.9205 11.5 18.9707 11.5C19.2127 11.5 19.435 11.3316 19.5043 11.0739C19.5881 10.7626 19.4169 10.439 19.1219 10.3505L17.488 9.86113C20.9013 8.98136 23 7.38115 23 5.53435C22.9997 2.66398 18.0558 0.5 11.4996 0.5Z" fill="#FCFCFC"/>
</svg>
