<svg width="18" height="18" viewBox="0 0 18 18" fill="none" xmlns="http://www.w3.org/2000/svg">
<path d="M17.5745 10.2438C17.3905 10.1977 17.2065 10.2438 17.0454 10.3593C16.4474 10.8671 15.7573 11.2826 14.9982 11.5596C14.285 11.8366 13.5029 11.9751 12.6748 11.9751C10.8116 11.9751 9.10931 11.2134 7.89013 9.98991C6.67096 8.76647 5.91185 7.05826 5.91185 5.18847C5.91185 4.40362 6.04987 3.64185 6.2799 2.94934C6.53294 2.21066 6.90099 1.54122 7.38406 0.964129C7.59109 0.710207 7.54508 0.340865 7.29205 0.133111C7.13102 0.0176916 6.947 -0.0284761 6.76297 0.0176916C4.80769 0.54862 3.10545 1.7259 1.88627 3.2956C0.713102 4.84221 0 6.75817 0 8.8588C0 11.3749 1.01215 13.6602 2.66838 15.3223C4.32462 16.9843 6.60195 18 9.10931 18C11.2256 18 13.1809 17.2613 14.7451 16.0379C16.3323 14.7913 17.4825 13.0139 17.9656 10.9825C18.0806 10.6363 17.8966 10.3131 17.5745 10.2438ZM14.055 15.0684C12.7208 16.1302 11.0186 16.7766 9.15531 16.7766C6.97 16.7766 4.99172 15.8763 3.56551 14.4451C2.13931 13.0139 1.24218 11.0287 1.24218 8.83572C1.24218 7.01209 1.84026 5.35006 2.87541 4.0112C3.58852 3.08784 4.48564 2.32608 5.52079 1.79515C5.40578 2.04907 5.29076 2.30299 5.19875 2.58C4.8997 3.41102 4.76168 4.2882 4.76168 5.21155C4.76168 7.40452 5.65881 9.41281 7.08502 10.844C8.51122 12.2752 10.5125 13.1755 12.6978 13.1755C13.664 13.1755 14.5841 13.0139 15.4352 12.6907C15.7343 12.5753 16.0333 12.4599 16.3093 12.3214C15.7573 13.3832 14.9982 14.3297 14.055 15.0684Z" fill="#1A2941"/>
</svg>
