<svg width="22" height="22" viewBox="0 0 22 22" fill="none" xmlns="http://www.w3.org/2000/svg">
<path d="M21.2 6.11526C21.2 5.36774 20.9093 4.66497 20.3814 4.13644C19.9216 3.676 19.3114 3.39581 18.6622 3.33777C18.6978 3.15941 18.7158 2.97915 18.7158 2.79851C18.7158 1.25539 17.4621 0 15.9211 0C14.3801 0 13.1264 1.25539 13.1264 2.79851C13.1264 2.84374 13.1275 2.88897 13.1298 2.93412C13.258 3.03412 13.3811 3.14121 13.4967 3.25697C14.259 4.02036 14.679 5.03549 14.679 6.11526C14.679 7.05833 14.3587 7.95207 13.7695 8.67193C13.8234 8.92148 13.8509 9.17658 13.8509 9.43201C13.8509 10.2816 13.5577 11.0637 13.0674 11.6826C13.3129 11.7686 13.5765 11.8159 13.8509 11.8159C14.3958 11.8159 14.8984 11.6315 15.3 11.3219V4.76783C15.3 4.42438 15.5781 4.14594 15.9211 4.14594C16.2641 4.14594 16.5421 4.42438 16.5421 4.76783V6.01161L17.2046 5.5141C17.479 5.30804 17.8682 5.36364 18.074 5.63847C18.2799 5.91323 18.2242 6.30303 17.9498 6.50912L16.5421 7.56634V11.3219C16.9438 11.6314 17.4463 11.8159 17.9912 11.8159C19.304 11.8159 20.3719 10.7465 20.3719 9.43201C20.3719 9.04743 20.2792 8.67322 20.1015 8.33408C20.205 8.25742 20.2977 8.17786 20.3814 8.09411C20.9093 7.56551 21.2 6.86277 21.2 6.11526Z"/>
<path d="M3.97537 8.33408C3.79775 8.67326 3.70501 9.04743 3.70501 9.43201C3.70501 10.7465 4.77296 11.8159 6.08568 11.8159C6.63059 11.8159 7.13314 11.6315 7.53479 11.3219V8.91377L6.12709 7.85655C5.85271 7.65046 5.79706 7.26066 6.00288 6.9859C6.20865 6.71119 6.59796 6.65547 6.87234 6.86153L7.53479 7.35904V4.45688C7.53479 4.11343 7.81285 3.83499 8.15583 3.83499C8.49881 3.83499 8.77688 4.11343 8.77688 4.45688V5.70066L9.43932 5.20315C9.7137 4.9971 10.103 5.05274 10.3088 5.32753C10.5146 5.60228 10.459 5.99208 10.1846 6.19818L8.77688 7.25539V11.3219C9.17853 11.6314 9.68107 11.8159 10.226 11.8159C11.5387 11.8159 12.6066 10.7465 12.6066 9.43201C12.6066 9.04743 12.5139 8.67322 12.3363 8.33408C12.4398 8.25742 12.5325 8.17786 12.6161 8.09411C13.144 7.56551 13.4347 6.86277 13.4347 6.11526C13.4347 5.36774 13.144 4.66497 12.6161 4.13644C12.1564 3.676 11.5462 3.39581 10.8969 3.33777C10.9326 3.15941 10.9505 2.97919 10.9505 2.79851C10.9505 1.25539 9.69685 0 8.15583 0C6.61481 0 5.36113 1.25539 5.36113 2.79851C5.36113 2.97915 5.3791 3.15941 5.41475 3.33777C4.76551 3.39581 4.15527 3.676 3.69557 4.1364C3.16764 4.66497 2.87695 5.36774 2.87695 6.11526C2.87695 6.86277 3.16764 7.56551 3.69553 8.09407C3.77917 8.17786 3.87187 8.25742 3.97537 8.33408Z"/>
<path d="M15.2988 11.322V20.6054C15.2988 20.9489 15.5769 21.2273 15.9199 21.2273C16.2629 21.2273 16.5409 20.9489 16.5409 20.6054V11.322H15.2988Z" />
<path d="M7.53516 11.322H8.77725V12.5209H7.53516V11.322Z" />
<path d="M12.0897 14.3864C12.0897 14.043 11.8117 13.7645 11.4687 13.7645H1.44917C1.10619 13.7645 0.828125 14.043 0.828125 14.3864V16.2521H12.0897V14.3864Z" />
<path d="M12.2967 17.4958H0.621044C0.278062 17.4958 0 17.7743 0 18.1177C0 18.4612 0.278062 18.7396 0.621044 18.7396H1.65612V20.6053C1.65612 20.9488 1.93418 21.2272 2.27716 21.2272C2.62015 21.2272 2.89821 20.9488 2.89821 20.6053V18.7396H10.0195V20.6053C10.0195 20.9488 10.2976 21.2272 10.6406 21.2272C10.9835 21.2272 11.2616 20.9488 11.2616 20.6053V18.7396H12.2967C12.6397 18.7396 12.9177 18.4612 12.9177 18.1177C12.9177 17.7743 12.6397 17.4958 12.2967 17.4958Z" />
</svg>
