<svg width="10" height="12" viewBox="0 0 10 12" fill="none" xmlns="http://www.w3.org/2000/svg">
<mask id="path-1-inside-1" fill="white">
<path d="M3.12771 0.000408073C3.07483 0.00643313 3.02487 0.0277984 2.98398 0.0618709C2.94309 0.0959434 2.91307 0.141234 2.89761 0.192162L2.59506 1.17223H0.272716C0.200389 1.17224 0.131027 1.20098 0.0798847 1.25212C0.0287421 1.30326 7.21711e-06 1.37262 0 1.44495V3.06846C7.21711e-06 3.14079 0.0287421 3.21015 0.0798847 3.26129C0.131027 3.31244 0.200389 3.34117 0.272716 3.34118H9.27235C9.34467 3.34117 9.41403 3.31244 9.46518 3.26129C9.51632 3.21015 9.54505 3.14079 9.54506 3.06846V1.44495C9.54505 1.37262 9.51632 1.30326 9.46518 1.25212C9.41403 1.20098 9.34467 1.17224 9.27235 1.17223H6.95L6.64745 0.192162C6.6302 0.136681 6.59568 0.0881595 6.54893 0.0536678C6.50217 0.019176 6.44562 0.000516452 6.38752 0.000408073H3.15754C3.14761 -0.000136024 3.13765 -0.000136024 3.12771 0.000408073ZM3.35782 0.54584H6.18725L6.379 1.17223H3.16606L3.35782 0.54584ZM0.545432 1.71767H8.99963V2.79575H0.545432V1.71767ZM8.70987 3.66929C8.63978 3.67259 8.57366 3.70277 8.52525 3.75356C8.47684 3.80435 8.44987 3.87184 8.44994 3.94201L7.79371 11.4545H1.75135L1.09513 3.94201C1.09078 3.87267 1.06014 3.80761 1.00946 3.7601C0.958777 3.71259 0.891878 3.68621 0.822409 3.68634C0.784302 3.68671 0.746696 3.69506 0.712015 3.71085C0.677333 3.72665 0.646347 3.74954 0.621054 3.77804C0.595761 3.80655 0.576722 3.84004 0.565165 3.87635C0.553608 3.91267 0.549789 3.951 0.553954 3.98888L1.2954 11.9999H1.36358C1.43176 11.9999 1.43116 12.0001 1.49994 11.9999H8.04512C8.04512 11.9999 8.18148 11.9999 8.24966 11.9999L8.99111 3.98888C8.99817 3.94862 8.9961 3.90729 8.98504 3.86795C8.97398 3.8286 8.95422 3.79224 8.92722 3.76156C8.90022 3.73088 8.86667 3.70666 8.82905 3.69069C8.79143 3.67471 8.7507 3.6674 8.70987 3.66929ZM4.7427 4.57692C4.67566 4.58431 4.61374 4.61626 4.56888 4.66663C4.52402 4.717 4.49942 4.7822 4.49981 4.84964V9.72018C4.4993 9.75631 4.50598 9.79219 4.51946 9.82573C4.53293 9.85926 4.55294 9.88978 4.57831 9.91552C4.60369 9.94126 4.63393 9.96169 4.66727 9.97564C4.70061 9.98959 4.73639 9.99677 4.77253 9.99677C4.80867 9.99677 4.84445 9.98959 4.87779 9.97564C4.91114 9.96169 4.94137 9.94126 4.96675 9.91552C4.99212 9.88978 5.01213 9.85926 5.0256 9.82573C5.03908 9.79219 5.04576 9.75631 5.04525 9.72018V4.84964C5.04547 4.81117 5.03756 4.77309 5.02203 4.7379C5.00649 4.70271 4.98369 4.6712 4.95512 4.64545C4.92655 4.61969 4.89285 4.60027 4.85624 4.58846C4.81963 4.57665 4.78094 4.57272 4.7427 4.57692ZM2.52262 4.84538C2.45089 4.85392 2.38548 4.89058 2.34074 4.9473C2.296 5.00402 2.2756 5.07617 2.284 5.14792L2.72716 9.47729C2.7308 9.5131 2.74145 9.54785 2.75852 9.57954C2.77558 9.61124 2.79873 9.63926 2.82662 9.66201C2.85452 9.68477 2.88662 9.7018 2.9211 9.71215C2.95558 9.72249 2.99176 9.72594 3.02757 9.72231C3.06339 9.71867 3.09813 9.70801 3.12983 9.69095C3.16153 9.67388 3.18955 9.65074 3.2123 9.62284C3.23505 9.59495 3.25209 9.56284 3.26243 9.52837C3.27278 9.49389 3.27623 9.45771 3.27259 9.42189L2.82943 5.09253C2.82628 5.05585 2.81574 5.02019 2.79844 4.9877C2.78115 4.95521 2.75745 4.92655 2.72879 4.90346C2.70012 4.88037 2.66708 4.86332 2.63164 4.85333C2.59621 4.84335 2.55913 4.84065 2.52262 4.84538ZM6.95852 4.84538C6.89567 4.85205 6.83709 4.88034 6.79278 4.92542C6.74848 4.9705 6.72121 5.02957 6.71563 5.09253L6.27247 9.42189C6.26883 9.45771 6.27228 9.49389 6.28263 9.52837C6.29297 9.56284 6.31001 9.59495 6.33276 9.62284C6.35551 9.65074 6.38354 9.67388 6.41523 9.69095C6.44693 9.70801 6.48167 9.71867 6.51749 9.72231C6.5533 9.72594 6.58948 9.72249 6.62396 9.71215C6.65844 9.7018 6.69054 9.68477 6.71844 9.66201C6.74634 9.63926 6.76948 9.61124 6.78654 9.57954C6.80361 9.54785 6.81426 9.5131 6.8179 9.47729L7.26106 5.14792C7.26584 5.10704 7.2613 5.0656 7.24778 5.02672C7.23427 4.98784 7.21213 4.95253 7.18302 4.92342C7.15392 4.89432 7.1186 4.87217 7.07972 4.85866C7.04084 4.84514 6.9994 4.8406 6.95852 4.84538Z"/>
</mask>
<path d="M3.12771 0.000408073C3.07483 0.00643313 3.02487 0.0277984 2.98398 0.0618709C2.94309 0.0959434 2.91307 0.141234 2.89761 0.192162L2.59506 1.17223H0.272716C0.200389 1.17224 0.131027 1.20098 0.0798847 1.25212C0.0287421 1.30326 7.21711e-06 1.37262 0 1.44495V3.06846C7.21711e-06 3.14079 0.0287421 3.21015 0.0798847 3.26129C0.131027 3.31244 0.200389 3.34117 0.272716 3.34118H9.27235C9.34467 3.34117 9.41403 3.31244 9.46518 3.26129C9.51632 3.21015 9.54505 3.14079 9.54506 3.06846V1.44495C9.54505 1.37262 9.51632 1.30326 9.46518 1.25212C9.41403 1.20098 9.34467 1.17224 9.27235 1.17223H6.95L6.64745 0.192162C6.6302 0.136681 6.59568 0.0881595 6.54893 0.0536678C6.50217 0.019176 6.44562 0.000516452 6.38752 0.000408073H3.15754C3.14761 -0.000136024 3.13765 -0.000136024 3.12771 0.000408073ZM3.35782 0.54584H6.18725L6.379 1.17223H3.16606L3.35782 0.54584ZM0.545432 1.71767H8.99963V2.79575H0.545432V1.71767ZM8.70987 3.66929C8.63978 3.67259 8.57366 3.70277 8.52525 3.75356C8.47684 3.80435 8.44987 3.87184 8.44994 3.94201L7.79371 11.4545H1.75135L1.09513 3.94201C1.09078 3.87267 1.06014 3.80761 1.00946 3.7601C0.958777 3.71259 0.891878 3.68621 0.822409 3.68634C0.784302 3.68671 0.746696 3.69506 0.712015 3.71085C0.677333 3.72665 0.646347 3.74954 0.621054 3.77804C0.595761 3.80655 0.576722 3.84004 0.565165 3.87635C0.553608 3.91267 0.549789 3.951 0.553954 3.98888L1.2954 11.9999H1.36358C1.43176 11.9999 1.43116 12.0001 1.49994 11.9999H8.04512C8.04512 11.9999 8.18148 11.9999 8.24966 11.9999L8.99111 3.98888C8.99817 3.94862 8.9961 3.90729 8.98504 3.86795C8.97398 3.8286 8.95422 3.79224 8.92722 3.76156C8.90022 3.73088 8.86667 3.70666 8.82905 3.69069C8.79143 3.67471 8.7507 3.6674 8.70987 3.66929ZM4.7427 4.57692C4.67566 4.58431 4.61374 4.61626 4.56888 4.66663C4.52402 4.717 4.49942 4.7822 4.49981 4.84964V9.72018C4.4993 9.75631 4.50598 9.79219 4.51946 9.82573C4.53293 9.85926 4.55294 9.88978 4.57831 9.91552C4.60369 9.94126 4.63393 9.96169 4.66727 9.97564C4.70061 9.98959 4.73639 9.99677 4.77253 9.99677C4.80867 9.99677 4.84445 9.98959 4.87779 9.97564C4.91114 9.96169 4.94137 9.94126 4.96675 9.91552C4.99212 9.88978 5.01213 9.85926 5.0256 9.82573C5.03908 9.79219 5.04576 9.75631 5.04525 9.72018V4.84964C5.04547 4.81117 5.03756 4.77309 5.02203 4.7379C5.00649 4.70271 4.98369 4.6712 4.95512 4.64545C4.92655 4.61969 4.89285 4.60027 4.85624 4.58846C4.81963 4.57665 4.78094 4.57272 4.7427 4.57692ZM2.52262 4.84538C2.45089 4.85392 2.38548 4.89058 2.34074 4.9473C2.296 5.00402 2.2756 5.07617 2.284 5.14792L2.72716 9.47729C2.7308 9.5131 2.74145 9.54785 2.75852 9.57954C2.77558 9.61124 2.79873 9.63926 2.82662 9.66201C2.85452 9.68477 2.88662 9.7018 2.9211 9.71215C2.95558 9.72249 2.99176 9.72594 3.02757 9.72231C3.06339 9.71867 3.09813 9.70801 3.12983 9.69095C3.16153 9.67388 3.18955 9.65074 3.2123 9.62284C3.23505 9.59495 3.25209 9.56284 3.26243 9.52837C3.27278 9.49389 3.27623 9.45771 3.27259 9.42189L2.82943 5.09253C2.82628 5.05585 2.81574 5.02019 2.79844 4.9877C2.78115 4.95521 2.75745 4.92655 2.72879 4.90346C2.70012 4.88037 2.66708 4.86332 2.63164 4.85333C2.59621 4.84335 2.55913 4.84065 2.52262 4.84538ZM6.95852 4.84538C6.89567 4.85205 6.83709 4.88034 6.79278 4.92542C6.74848 4.9705 6.72121 5.02957 6.71563 5.09253L6.27247 9.42189C6.26883 9.45771 6.27228 9.49389 6.28263 9.52837C6.29297 9.56284 6.31001 9.59495 6.33276 9.62284C6.35551 9.65074 6.38354 9.67388 6.41523 9.69095C6.44693 9.70801 6.48167 9.71867 6.51749 9.72231C6.5533 9.72594 6.58948 9.72249 6.62396 9.71215C6.65844 9.7018 6.69054 9.68477 6.71844 9.66201C6.74634 9.63926 6.76948 9.61124 6.78654 9.57954C6.80361 9.54785 6.81426 9.5131 6.8179 9.47729L7.26106 5.14792C7.26584 5.10704 7.2613 5.0656 7.24778 5.02672C7.23427 4.98784 7.21213 4.95253 7.18302 4.92342C7.15392 4.89432 7.1186 4.87217 7.07972 4.85866C7.04084 4.84514 6.9994 4.8406 6.95852 4.84538Z" fill="#1A2941"/>
<path d="M3.12771 0.000408073L3.07303 -0.998096L3.0437 -0.996489L3.01451 -0.993164L3.12771 0.000408073ZM2.89761 0.192162L3.85313 0.487126L3.85448 0.482679L2.89761 0.192162ZM2.59506 1.17223V2.17223H3.33293L3.55057 1.4672L2.59506 1.17223ZM0.272716 1.17223V0.172235L0.272616 0.172235L0.272716 1.17223ZM0 1.44495L-1 1.44485V1.44495H0ZM0 3.06846H-1V3.06856L0 3.06846ZM0.272716 3.34118L0.272616 4.34118H0.272716V3.34118ZM9.27235 3.34118V4.34118H9.27245L9.27235 3.34118ZM9.54506 3.06846L10.5451 3.06856V3.06846H9.54506ZM9.54506 1.44495H10.5451L10.5451 1.44485L9.54506 1.44495ZM9.27235 1.17223L9.27245 0.172235H9.27235V1.17223ZM6.95 1.17223L5.99449 1.4672L6.21213 2.17223H6.95V1.17223ZM6.64745 0.192162L7.60296 -0.102801L7.60235 -0.104782L6.64745 0.192162ZM6.38752 0.000408073L6.38939 -0.999592H6.38752V0.000408073ZM3.15754 0.000408073L3.10286 0.998912L3.13018 1.00041H3.15754V0.000408073ZM3.35782 0.54584V-0.45416H2.61813L2.40162 0.253126L3.35782 0.54584ZM6.18725 0.54584L7.14345 0.253126L6.92693 -0.45416H6.18725V0.54584ZM6.379 1.17223V2.17223H7.73093L7.3352 0.87952L6.379 1.17223ZM3.16606 1.17223L2.20986 0.87952L1.81413 2.17223H3.16606V1.17223ZM0.545432 1.71767V0.717667H-0.454568V1.71767H0.545432ZM8.99963 1.71767H9.99963V0.717667H8.99963V1.71767ZM8.99963 2.79575V3.79575H9.99963V2.79575H8.99963ZM0.545432 2.79575H-0.454568V3.79575H0.545432V2.79575ZM8.70987 3.66929L8.66367 2.67036L8.6629 2.67039L8.70987 3.66929ZM8.44994 3.94201L9.44614 4.02903L9.44998 3.9851L9.44994 3.941L8.44994 3.94201ZM7.79371 11.4545V12.4545H8.71017L8.78992 11.5415L7.79371 11.4545ZM1.75135 11.4545L0.755142 11.5415L0.834892 12.4545H1.75135V11.4545ZM1.09513 3.94201L0.0970862 4.0046L0.0978529 4.01682L0.0989188 4.02903L1.09513 3.94201ZM0.822409 3.68634L0.820548 2.68631L0.812678 2.68638L0.822409 3.68634ZM0.553954 3.98888L1.5497 3.89672L1.5489 3.88814L1.54796 3.87957L0.553954 3.98888ZM1.2954 11.9999L0.299657 12.0921L0.383681 12.9999H1.2954V11.9999ZM1.49994 11.9999V10.9999L1.49697 10.9999L1.49994 11.9999ZM8.04512 11.9999V12.9999H8.04518L8.04512 11.9999ZM8.24966 11.9999V12.9999H9.16138L9.2454 12.0921L8.24966 11.9999ZM8.99111 3.98888L8.00616 3.81605L7.99912 3.85617L7.99536 3.89672L8.99111 3.98888ZM4.7427 4.57692L4.63342 3.58291L4.63326 3.58293L4.7427 4.57692ZM4.49981 4.84964H5.49983L5.4998 4.84373L4.49981 4.84964ZM4.49981 9.72018L5.49981 9.7343V9.72018H4.49981ZM5.04525 9.72018H4.04515L4.04535 9.7343L5.04525 9.72018ZM5.04525 4.84964L4.04525 4.84375V4.84964H5.04525ZM2.52262 4.84538L2.64093 5.83841L2.65118 5.83708L2.52262 4.84538ZM2.284 5.14792L3.2788 5.04609L3.27806 5.03886L3.27721 5.03164L2.284 5.14792ZM2.72716 9.47729L3.72204 9.37625L3.72196 9.37546L2.72716 9.47729ZM3.27259 9.42189L4.26748 9.32085L4.26739 9.32006L3.27259 9.42189ZM2.82943 5.09253L1.83309 5.17807L1.83379 5.18622L1.83463 5.19436L2.82943 5.09253ZM6.95852 4.84538L7.06409 5.83985L7.07454 5.83863L6.95852 4.84538ZM6.71563 5.09253L7.71053 5.19437L7.71173 5.18078L6.71563 5.09253ZM6.27247 9.42189L5.27767 9.32006L5.27759 9.32085L6.27247 9.42189ZM6.8179 9.47729L5.8231 9.37546L5.82302 9.37625L6.8179 9.47729ZM7.26106 5.14792L6.26782 5.03191L6.26699 5.03899L6.26626 5.04609L7.26106 5.14792ZM3.01451 -0.993164C2.76774 -0.965048 2.53459 -0.865348 2.3438 -0.70635L3.62417 0.830092C3.51514 0.920945 3.38192 0.977914 3.24092 0.99398L3.01451 -0.993164ZM2.3438 -0.70635C2.153 -0.547353 2.01289 -0.336006 1.94074 -0.0983556L3.85448 0.482679C3.81325 0.618474 3.73319 0.73924 3.62417 0.830092L2.3438 -0.70635ZM1.9421 -0.1028L1.63955 0.877273L3.55057 1.4672L3.85312 0.487123L1.9421 -0.1028ZM2.59506 0.172235H0.272716V2.17223H2.59506V0.172235ZM0.272616 0.172235C-0.0648923 0.172268 -0.388568 0.306358 -0.627222 0.545012L0.786991 1.95923C0.650622 2.0956 0.465671 2.17222 0.272816 2.17223L0.272616 0.172235ZM-0.627222 0.545012C-0.865876 0.783667 -0.999966 1.10734 -1 1.44485L1 1.44505C0.999981 1.63791 0.923361 1.82286 0.786991 1.95923L-0.627222 0.545012ZM-1 1.44495V3.06846H1V1.44495H-1ZM-1 3.06856C-0.999966 3.40607 -0.865877 3.72975 -0.627222 3.9684L0.786991 2.55419C0.923361 2.69056 0.999981 2.87551 1 3.06836L-1 3.06856ZM-0.627222 3.9684C-0.388567 4.20706 -0.0648911 4.34115 0.272616 4.34118L0.272816 2.34118C0.46567 2.3412 0.650621 2.41782 0.786991 2.55419L-0.627222 3.9684ZM0.272716 4.34118H9.27235V2.34118H0.272716V4.34118ZM9.27245 4.34118C9.60995 4.34115 9.93363 4.20706 10.1723 3.9684L8.75807 2.55419C8.89444 2.41782 9.07939 2.3412 9.27225 2.34118L9.27245 4.34118ZM10.1723 3.9684C10.4109 3.72975 10.545 3.40607 10.5451 3.06856L8.54506 3.06836C8.54508 2.87551 8.6217 2.69056 8.75807 2.55419L10.1723 3.9684ZM10.5451 3.06846V1.44495H8.54506V3.06846H10.5451ZM10.5451 1.44485C10.545 1.10734 10.4109 0.783666 10.1723 0.545012L8.75807 1.95923C8.6217 1.82286 8.54508 1.63791 8.54506 1.44505L10.5451 1.44485ZM10.1723 0.545012C9.93363 0.306358 9.60995 0.172268 9.27245 0.172235L9.27225 2.17223C9.07939 2.17222 8.89444 2.09559 8.75807 1.95923L10.1723 0.545012ZM9.27235 0.172235H6.95V2.17223H9.27235V0.172235ZM7.90551 0.877273L7.60296 -0.1028L5.69194 0.487123L5.99449 1.4672L7.90551 0.877273ZM7.60235 -0.104782C7.52184 -0.36368 7.36076 -0.590103 7.14257 -0.751056L5.95528 0.858392C5.83061 0.766422 5.73856 0.637042 5.69256 0.489105L7.60235 -0.104782ZM7.14257 -0.751056C6.92439 -0.91201 6.66051 -0.999084 6.38939 -0.99959L6.38566 1.00041C6.23073 1.00012 6.07995 0.950362 5.95528 0.858392L7.14257 -0.751056ZM6.38752 -0.999592H3.15754V1.00041H6.38752V-0.999592ZM3.21222 -0.998096C3.16586 -1.00063 3.11939 -1.00063 3.07303 -0.998096L3.18239 0.998912C3.1559 1.00036 3.12935 1.00036 3.10286 0.998912L3.21222 -0.998096ZM3.35782 1.54584H6.18725V-0.45416H3.35782V1.54584ZM5.23105 0.838554L5.4228 1.46495L7.3352 0.87952L7.14345 0.253126L5.23105 0.838554ZM6.379 0.172235H3.16606V2.17223H6.379V0.172235ZM4.12226 1.46495L4.31402 0.838554L2.40162 0.253126L2.20986 0.87952L4.12226 1.46495ZM0.545432 2.71767H8.99963V0.717667H0.545432V2.71767ZM7.99963 1.71767V2.79575H9.99963V1.71767H7.99963ZM8.99963 1.79575H0.545432V3.79575H8.99963V1.79575ZM1.54543 2.79575V1.71767H-0.454568V2.79575H1.54543ZM8.6629 2.67039C8.33584 2.68577 8.02728 2.82661 7.80138 3.06362L9.24912 4.44349C9.12004 4.57892 8.94373 4.6594 8.75684 4.66819L8.6629 2.67039ZM7.80138 3.06362C7.57548 3.30063 7.44961 3.61559 7.44994 3.94301L9.44994 3.941C9.45012 4.12809 9.3782 4.30806 9.24912 4.44349L7.80138 3.06362ZM7.45373 3.85499L6.79751 11.3675L8.78992 11.5415L9.44614 4.02903L7.45373 3.85499ZM7.79371 10.4545H1.75135V12.4545H7.79371V10.4545ZM2.74756 11.3675L2.09133 3.85499L0.0989188 4.02903L0.755142 11.5415L2.74756 11.3675ZM2.09316 3.87941C2.07287 3.55588 1.92989 3.25228 1.6934 3.03056L0.325516 4.48964C0.190382 4.36295 0.10868 4.18947 0.0970862 4.0046L2.09316 3.87941ZM1.6934 3.03056C1.4569 2.80885 1.14472 2.68573 0.820548 2.68634L0.82427 4.68633C0.639034 4.68668 0.46065 4.61633 0.325516 4.48964L1.6934 3.03056ZM0.812678 2.68638C0.634854 2.68811 0.459365 2.72709 0.297527 2.8008L1.1265 4.62091C1.03403 4.66303 0.93375 4.6853 0.83214 4.68629L0.812678 2.68638ZM0.297527 2.8008C0.135685 2.87451 -0.00890882 2.98132 -0.126936 3.11433L1.36904 4.44175C1.3016 4.51776 1.21898 4.57879 1.1265 4.62091L0.297527 2.8008ZM-0.126936 3.11433C-0.244966 3.24735 -0.33381 3.40363 -0.387741 3.57309L1.51807 4.17962C1.48725 4.27645 1.43649 4.36575 1.36904 4.44175L-0.126936 3.11433ZM-0.387741 3.57309C-0.441671 3.74254 -0.459493 3.92142 -0.440053 4.09819L1.54796 3.87957C1.55907 3.98058 1.54889 4.08279 1.51807 4.17962L-0.387741 3.57309ZM-0.44179 4.08104L0.299657 12.0921L2.29115 11.9077L1.5497 3.89672L-0.44179 4.08104ZM1.2954 12.9999H1.36358V10.9999H1.2954V12.9999ZM1.36358 12.9999C1.42427 12.9999 1.43333 13.0001 1.5029 12.9999L1.49697 10.9999C1.42898 11.0001 1.43925 10.9999 1.36358 10.9999V12.9999ZM1.49994 12.9999H8.04512V10.9999H1.49994V12.9999ZM8.04512 11.9999C8.04518 12.9999 8.04519 12.9999 8.04519 12.9999C8.04519 12.9999 8.04519 12.9999 8.04519 12.9999C8.04519 12.9999 8.0452 12.9999 8.04521 12.9999C8.04523 12.9999 8.04525 12.9999 8.04528 12.9999C8.04535 12.9999 8.04545 12.9999 8.04558 12.9999C8.04584 12.9999 8.04622 12.9999 8.04673 12.9999C8.04775 12.9999 8.04924 12.9999 8.05117 12.9999C8.05504 12.9999 8.06063 12.9999 8.06755 12.9999C8.0814 12.9999 8.10057 12.9999 8.12187 12.9999C8.16449 12.9999 8.2156 12.9999 8.24966 12.9999V10.9999C8.21554 10.9999 8.16439 10.9999 8.12178 10.9999C8.10047 10.9999 8.08129 10.9999 8.06744 10.9999C8.06051 10.9999 8.05492 10.9999 8.05106 10.9999C8.04913 10.9999 8.04763 10.9999 8.04661 10.9999C8.0461 10.9999 8.04572 10.9999 8.04546 10.9999C8.04533 10.9999 8.04523 10.9999 8.04516 10.9999C8.04513 10.9999 8.0451 10.9999 8.04509 10.9999C8.04508 10.9999 8.04507 10.9999 8.04507 10.9999C8.04507 10.9999 8.04506 10.9999 8.04506 10.9999C8.04506 10.9999 8.04506 10.9999 8.04512 11.9999ZM9.2454 12.0921L9.98685 4.08104L7.99536 3.89672L7.25392 11.9077L9.2454 12.0921ZM9.97606 4.16171C10.009 3.97386 9.99935 3.781 9.94774 3.59738L8.02234 4.13851C7.99285 4.03359 7.98732 3.92339 8.00616 3.81605L9.97606 4.16171ZM9.94774 3.59738C9.89614 3.41377 9.80393 3.24411 9.67793 3.10093L8.17651 4.42219C8.10451 4.34038 8.05182 4.24343 8.02234 4.13851L9.94774 3.59738ZM9.67793 3.10093C9.55193 2.95775 9.39536 2.84472 9.21981 2.7702L8.43828 4.61117C8.33797 4.56859 8.24851 4.50401 8.17651 4.42219L9.67793 3.10093ZM9.21981 2.7702C9.04426 2.69567 8.8542 2.66155 8.66367 2.67036L8.75606 4.66822C8.6472 4.67326 8.53859 4.65376 8.43828 4.61117L9.21981 2.7702ZM4.63326 3.58293C4.32042 3.61738 4.03144 3.76651 3.82211 4.00154L5.31564 5.33172C5.19603 5.46602 5.03091 5.55123 4.85215 5.57092L4.63326 3.58293ZM3.82211 4.00154C3.61279 4.23657 3.49797 4.54082 3.49983 4.85555L5.4998 4.84373C5.50086 5.02357 5.43525 5.19742 5.31564 5.33172L3.82211 4.00154ZM3.49981 4.84964V9.72018H5.49981V4.84964H3.49981ZM3.49991 9.70605C3.49753 9.87469 3.52869 10.0421 3.59157 10.1986L5.44734 9.45285C5.48327 9.54227 5.50108 9.63794 5.49971 9.7343L3.49991 9.70605ZM3.59157 10.1986C3.65446 10.3551 3.74782 10.4975 3.86623 10.6176L5.2904 9.21343C5.35806 9.28205 5.41141 9.36343 5.44734 9.45285L3.59157 10.1986ZM3.86623 10.6176C3.98465 10.7377 4.12575 10.8331 4.28132 10.8982L5.05321 9.05312C5.14211 9.09031 5.22273 9.1448 5.2904 9.21343L3.86623 10.6176ZM4.28132 10.8982C4.4369 10.9632 4.60387 10.9968 4.77253 10.9968V8.99677C4.86891 8.99677 4.96432 9.01593 5.05321 9.05312L4.28132 10.8982ZM4.77253 10.9968C4.9412 10.9968 5.10816 10.9632 5.26374 10.8982L4.49185 9.05312C4.58074 9.01593 4.67615 8.99677 4.77253 8.99677V10.9968ZM5.26374 10.8982C5.41932 10.8331 5.56042 10.7377 5.67883 10.6176L4.25466 9.21343C4.32233 9.1448 4.40296 9.09031 4.49185 9.05312L5.26374 10.8982ZM5.67883 10.6176C5.79724 10.4975 5.8906 10.3551 5.95349 10.1986L4.09772 9.45285C4.13366 9.36343 4.187 9.28205 4.25466 9.21343L5.67883 10.6176ZM5.95349 10.1986C6.01637 10.0421 6.04753 9.87469 6.04515 9.70605L4.04535 9.7343C4.04399 9.63794 4.06179 9.54227 4.09772 9.45285L5.95349 10.1986ZM6.04525 9.72018V4.84964H4.04525V9.72018H6.04525ZM6.04523 4.85553C6.04629 4.67603 6.00936 4.49833 5.93688 4.33411L4.10718 5.14169C4.06576 5.04786 4.04466 4.94632 4.04526 4.84375L6.04523 4.85553ZM5.93688 4.33411C5.8644 4.16989 5.758 4.02286 5.62466 3.90267L4.28558 5.38822C4.20939 5.31954 4.14859 5.23553 4.10718 5.14169L5.93688 4.33411ZM5.62466 3.90267C5.49134 3.78249 5.33409 3.69186 5.16325 3.63675L4.54924 5.54017C4.45161 5.50868 4.36176 5.45689 4.28558 5.38822L5.62466 3.90267ZM5.16325 3.63675C4.99241 3.58164 4.81185 3.5633 4.63342 3.58291L4.85198 5.57093C4.75003 5.58214 4.64686 5.57166 4.54924 5.54017L5.16325 3.63675ZM2.40432 3.8524C2.06958 3.89228 1.76434 4.06333 1.55558 4.32801L3.12591 5.56659C3.00662 5.71783 2.8322 5.81557 2.64093 5.83836L2.40432 3.8524ZM1.55558 4.32801C1.34681 4.5927 1.25158 4.92939 1.29078 5.26421L3.27721 5.03164C3.29961 5.22295 3.2452 5.41534 3.12591 5.56659L1.55558 4.32801ZM1.2892 5.24975L1.73236 9.57912L3.72196 9.37546L3.2788 5.04609L1.2892 5.24975ZM1.73228 9.57833C1.74918 9.74479 1.79871 9.90629 1.87804 10.0536L3.639 9.10547C3.6842 9.1894 3.71241 9.28141 3.72204 9.37625L1.73228 9.57833ZM1.87804 10.0536C1.95736 10.2009 2.06492 10.3312 2.19458 10.437L3.45866 8.88708C3.53253 8.94733 3.59381 9.02153 3.639 9.10547L1.87804 10.0536ZM2.19458 10.437C2.32425 10.5427 2.47347 10.6219 2.63373 10.67L3.20848 8.75433C3.29977 8.78172 3.38479 8.82683 3.45866 8.88708L2.19458 10.437ZM2.63373 10.67C2.79399 10.718 2.96215 10.7341 3.12862 10.7172L2.92653 8.72742C3.02137 8.71779 3.11717 8.72693 3.20848 8.75433L2.63373 10.67ZM3.12862 10.7172C3.29508 10.7003 3.45658 10.6508 3.60391 10.5714L2.65575 8.81046C2.73969 8.76527 2.8317 8.73706 2.92653 8.72742L3.12862 10.7172ZM3.60391 10.5714C3.75122 10.4921 3.88148 10.3846 3.98724 10.2549L2.43737 8.9908C2.49762 8.91693 2.57183 8.85565 2.65575 8.81046L3.60391 10.5714ZM3.98724 10.2549C4.09299 10.1252 4.17217 9.976 4.22025 9.81574L2.30461 9.24099C2.33201 9.14969 2.37711 9.06468 2.43737 8.9908L3.98724 10.2549ZM4.22025 9.81574C4.26833 9.65548 4.28438 9.48731 4.26747 9.32085L2.27771 9.52294C2.26808 9.4281 2.27722 9.33229 2.30461 9.24099L4.22025 9.81574ZM4.26739 9.32006L3.82423 4.9907L1.83463 5.19436L2.27779 9.52372L4.26739 9.32006ZM3.82576 5.00698C3.81107 4.83584 3.76188 4.66944 3.68117 4.51781L1.91572 5.45759C1.8696 5.37094 1.84149 5.27586 1.83309 5.17807L3.82576 5.00698ZM3.68117 4.51781C3.60045 4.36618 3.48988 4.23246 3.35611 4.1247L2.10146 5.68221C2.02502 5.62064 1.96184 5.54423 1.91572 5.45759L3.68117 4.51781ZM3.35611 4.1247C3.22235 4.01695 3.06815 3.93738 2.90281 3.8908L2.36048 5.81587C2.266 5.78925 2.17789 5.74378 2.10146 5.68221L3.35611 4.1247ZM2.90281 3.8908C2.73747 3.84422 2.56442 3.83159 2.39407 3.85368L2.65118 5.83708C2.55384 5.8497 2.45495 5.84248 2.36048 5.81587L2.90281 3.8908ZM6.85296 3.85097C6.55966 3.8821 6.28629 4.01413 6.07956 4.22449L7.50601 5.62635C7.38788 5.74656 7.23167 5.822 7.06408 5.83979L6.85296 3.85097ZM6.07956 4.22449C5.87282 4.43485 5.74556 4.71048 5.71953 5.00427L7.71173 5.18078C7.69686 5.34866 7.62414 5.50615 7.50601 5.62635L6.07956 4.22449ZM5.72083 4.9907L5.27767 9.32006L7.26727 9.52372L7.71043 5.19436L5.72083 4.9907ZM5.27759 9.32085C5.26068 9.48731 5.27673 9.65548 5.32481 9.81574L7.24045 9.24099C7.26784 9.33229 7.27698 9.4281 7.26735 9.52294L5.27759 9.32085ZM5.32481 9.81574C5.37289 9.976 5.45207 10.1252 5.55782 10.2549L7.1077 8.9908C7.16795 9.06468 7.21306 9.14969 7.24045 9.24099L5.32481 9.81574ZM5.55782 10.2549C5.66358 10.3846 5.79384 10.4921 5.94116 10.5714L6.88931 8.81046C6.97324 8.85565 7.04744 8.91693 7.1077 8.9908L5.55782 10.2549ZM5.94116 10.5714C6.08848 10.6508 6.24998 10.7003 6.41644 10.7172L6.61853 8.72742C6.71336 8.73706 6.80538 8.76527 6.88931 8.81046L5.94116 10.5714ZM6.41644 10.7172C6.58291 10.7341 6.75107 10.718 6.91133 10.67L6.33659 8.75433C6.42789 8.72693 6.52369 8.71779 6.61853 8.72742L6.41644 10.7172ZM6.91133 10.67C7.07159 10.6219 7.22081 10.5427 7.35048 10.437L6.0864 8.88708C6.16027 8.82683 6.24529 8.78172 6.33659 8.75433L6.91133 10.67ZM7.35048 10.437C7.48014 10.3312 7.5877 10.2009 7.66703 10.0536L5.90606 9.10547C5.95125 9.02153 6.01253 8.94733 6.0864 8.88708L7.35048 10.437ZM7.66703 10.0536C7.74635 9.90629 7.79588 9.74479 7.81278 9.57833L5.82302 9.37625C5.83265 9.28141 5.86087 9.1894 5.90606 9.10547L7.66703 10.0536ZM7.8127 9.57912L8.25587 5.24975L6.26626 5.04609L5.8231 9.37546L7.8127 9.57912ZM8.25431 5.26394C8.2766 5.07315 8.25541 4.8798 8.19234 4.69837L6.30323 5.35508C6.26719 5.25141 6.25508 5.14093 6.26782 5.03191L8.25431 5.26394ZM8.19234 4.69837C8.12927 4.51695 8.02596 4.35215 7.89013 4.21631L6.47592 5.63053C6.3983 5.55291 6.33926 5.45874 6.30323 5.35508L8.19234 4.69837ZM7.89013 4.21631C7.75431 4.08049 7.58951 3.97717 7.40807 3.9141L6.75137 5.80321C6.64769 5.76717 6.55352 5.70814 6.47592 5.63053L7.89013 4.21631ZM7.40807 3.9141C7.22664 3.85103 7.03328 3.82985 6.8425 3.85213L7.07454 5.83863C6.96552 5.85136 6.85504 5.83925 6.75137 5.80321L7.40807 3.9141Z" fill="black" mask="url(#path-1-inside-1)"/>
</svg>
