<svg width="21" height="27" viewBox="0 0 21 27" fill="none" xmlns="http://www.w3.org/2000/svg">
<path d="M6.88125 0.000918165C6.76491 0.0144745 6.65499 0.0625464 6.56503 0.13921C6.47508 0.215873 6.40902 0.317777 6.375 0.432363L5.70938 2.63753H0.6C0.440875 2.63754 0.288272 2.7022 0.175754 2.81727C0.0632351 2.93234 1.58783e-05 3.0884 0 3.25114V6.90404C1.58783e-05 7.06678 0.0632351 7.22284 0.175754 7.33791C0.288272 7.45298 0.440875 7.51764 0.6 7.51765H20.4C20.5591 7.51764 20.7117 7.45298 20.8242 7.33791C20.9368 7.22284 21 7.06678 21 6.90404V3.25114C21 3.0884 20.9368 2.93234 20.8242 2.81727C20.7117 2.7022 20.5591 2.63754 20.4 2.63753H15.2906L14.625 0.432363C14.587 0.307532 14.5111 0.198359 14.4082 0.120752C14.3054 0.0431461 14.181 0.00116202 14.0531 0.000918165H6.94688C6.92502 -0.000306055 6.90311 -0.000306055 6.88125 0.000918165ZM7.3875 1.22814H13.6125L14.0344 2.63753H6.96563L7.3875 1.22814ZM1.2 3.86475H19.8V6.29043H1.2V3.86475ZM19.1625 8.2559C19.0083 8.26332 18.8628 8.33122 18.7563 8.4455C18.6498 8.55978 18.5905 8.71164 18.5906 8.86951L17.1469 25.7726H3.85313L2.40938 8.86951C2.39981 8.71352 2.3324 8.56713 2.2209 8.46023C2.1094 8.35333 1.96221 8.29396 1.80938 8.29425C1.72554 8.29509 1.6428 8.31388 1.5665 8.34942C1.49019 8.38496 1.42202 8.43646 1.36638 8.5006C1.31073 8.56473 1.26884 8.64008 1.24341 8.72179C1.21799 8.8035 1.20959 8.88975 1.21875 8.97498L2.85 26.9998H3C3.15 26.9998 3.14867 27.0003 3.3 26.9998H17.7C17.7 26.9998 18 26.9998 18.15 26.9998L19.7812 8.97498C19.7968 8.8844 19.7922 8.79141 19.7679 8.70288C19.7436 8.61435 19.7001 8.53255 19.6407 8.46351C19.5813 8.39448 19.5075 8.33998 19.4247 8.30404C19.3419 8.26811 19.2523 8.25166 19.1625 8.2559ZM10.4344 10.2981C10.2869 10.3147 10.1506 10.3866 10.0519 10.4999C9.95326 10.6132 9.89912 10.7599 9.9 10.9117V21.8704C9.89888 21.9517 9.91357 22.0324 9.94322 22.1079C9.97286 22.1833 10.0169 22.252 10.0727 22.3099C10.1285 22.3678 10.1951 22.4138 10.2684 22.4452C10.3418 22.4766 10.4205 22.4927 10.5 22.4927C10.5795 22.4927 10.6582 22.4766 10.7316 22.4452C10.8049 22.4138 10.8715 22.3678 10.9273 22.3099C10.9831 22.252 11.0271 22.1833 11.0568 22.1079C11.0864 22.0324 11.1011 21.9517 11.1 21.8704V10.9117C11.1005 10.8251 11.0831 10.7395 11.0489 10.6603C11.0147 10.5811 10.9646 10.5102 10.9017 10.4523C10.8389 10.3943 10.7647 10.3506 10.6842 10.324C10.6036 10.2975 10.5185 10.2886 10.4344 10.2981ZM5.55 10.9021C5.39218 10.9213 5.24827 11.0038 5.14984 11.1314C5.05142 11.259 5.00652 11.4214 5.025 11.5828L6 21.3239C6.008 21.4045 6.03145 21.4827 6.06899 21.554C6.10654 21.6253 6.15745 21.6883 6.21882 21.7395C6.2802 21.7907 6.35083 21.8291 6.42669 21.8523C6.50255 21.8756 6.58214 21.8834 6.66094 21.8752C6.73973 21.867 6.81618 21.843 6.88591 21.8046C6.95564 21.7662 7.0173 21.7142 7.06735 21.6514C7.11741 21.5886 7.15489 21.5164 7.17765 21.4388C7.20041 21.3612 7.208 21.2798 7.2 21.1993L6.225 11.4582C6.21807 11.3757 6.19488 11.2954 6.15683 11.2223C6.11877 11.1492 6.06664 11.0847 6.00358 11.0328C5.94051 10.9808 5.86781 10.9425 5.78986 10.92C5.7119 10.8975 5.63031 10.8915 5.55 10.9021ZM15.3094 10.9021C15.1711 10.9171 15.0422 10.9808 14.9447 11.0822C14.8473 11.1836 14.7873 11.3165 14.775 11.4582L13.8 21.1993C13.792 21.2798 13.7996 21.3612 13.8224 21.4388C13.8451 21.5164 13.8826 21.5886 13.9326 21.6514C13.9827 21.7142 14.0444 21.7662 14.1141 21.8046C14.1838 21.843 14.2603 21.867 14.3391 21.8752C14.4179 21.8834 14.4975 21.8756 14.5733 21.8523C14.6492 21.8291 14.7198 21.7907 14.7812 21.7395C14.8425 21.6883 14.8935 21.6253 14.931 21.554C14.9686 21.4827 14.992 21.4045 15 21.3239L15.975 11.5828C15.9855 11.4908 15.9755 11.3976 15.9458 11.3101C15.916 11.2226 15.8673 11.1432 15.8033 11.0777C15.7393 11.0122 15.6616 10.9624 15.576 10.932C15.4905 10.9016 15.3993 10.8914 15.3094 10.9021Z"/>
</svg>
