<svg width="22" height="22" viewBox="0 0 22 22" fill="none" xmlns="http://www.w3.org/2000/svg">
<path d="M16.399 10.2439H21.0725L20.2539 6.30854C20.1939 6.02009 19.9399 5.8136 19.6458 5.8136H12.4521L16.399 10.2439Z" />
<path d="M8.73359 5.81348H1.55179C1.2576 5.81348 1.00368 6.02013 0.94368 6.30858L0.125 10.244H4.75324L8.73359 5.81348Z" />
<path d="M10.5996 9.32642C10.2572 9.32642 9.97852 9.60547 9.97852 9.94833C9.97852 10.2912 10.2572 10.5701 10.5996 10.5701C10.9419 10.5701 11.2206 10.2912 11.2206 9.94833C11.2206 9.60531 10.9419 9.32642 10.5996 9.32642Z" />
<path d="M9.95508 17.7865H11.1972V21.2273H9.95508V17.7865Z" />
<path d="M16.1218 11.4878C15.9448 11.4878 15.7762 11.4121 15.6584 11.2798L11.2202 6.2977V3.10941H14.0439C14.3654 3.10941 14.5642 2.75861 14.3992 2.48215L13.8459 1.55495L14.3992 0.627745C14.5642 0.351285 14.3654 0.000485873 14.0439 0.000485873H10.6066C10.6042 0.000323914 10.6018 0 10.5992 0C10.2561 0 9.97812 0.278404 9.97812 0.621915V6.2875L5.4914 11.2818C5.37349 11.4129 5.20578 11.4878 5.02966 11.4878H0V20.6053C0 20.9488 0.278015 21.2272 0.621045 21.2272H8.71258V17.1645C8.71258 16.8212 8.9906 16.5426 9.33363 16.5426H11.8178C12.1608 16.5426 12.4389 16.8212 12.4389 17.1645V21.2272H20.5773C20.9203 21.2272 21.1983 20.9488 21.1983 20.6053V11.4878H16.1218ZM3.7853 17.9937C3.7853 18.3373 3.50729 18.6157 3.16426 18.6157C2.82139 18.6157 2.54321 18.3373 2.54321 17.9937V17.1645C2.54321 16.8212 2.82139 16.5426 3.16426 16.5426C3.50729 16.5426 3.7853 16.8212 3.7853 17.1645V17.9937ZM3.7853 14.677C3.7853 15.0205 3.50729 15.2989 3.16426 15.2989C2.82139 15.2989 2.54321 15.0205 2.54321 14.677V13.8478C2.54321 13.5045 2.82139 13.2259 3.16426 13.2259C3.50729 13.2259 3.7853 13.5045 3.7853 13.8478V14.677ZM6.26948 17.9937C6.26948 18.3373 5.99147 18.6157 5.64844 18.6157C5.30557 18.6157 5.02739 18.3373 5.02739 17.9937V17.1645C5.02739 16.8212 5.30557 16.5426 5.64844 16.5426C5.99147 16.5426 6.26948 16.8212 6.26948 17.1645V17.9937ZM6.26948 14.677C6.26948 15.0205 5.99147 15.2989 5.64844 15.2989C5.30557 15.2989 5.02739 15.0205 5.02739 14.677V13.8478C5.02739 13.5045 5.30557 13.2259 5.64844 13.2259C5.99147 13.2259 6.26948 13.5045 6.26948 13.8478V14.677ZM9.94707 14.677C9.94707 15.0205 9.66906 15.2989 9.32603 15.2989C8.983 15.2989 8.70498 15.0205 8.70498 14.677V13.8478C8.70498 13.5045 8.983 13.2259 9.32603 13.2259C9.66906 13.2259 9.94707 13.5045 9.94707 13.8478V14.677ZM8.73603 9.94805C8.73603 8.9193 9.57186 8.08246 10.5992 8.08246C11.6265 8.08246 12.4623 8.9193 12.4623 9.94805C12.4623 10.977 11.6265 11.8138 10.5992 11.8138C9.57186 11.8138 8.73603 10.977 8.73603 9.94805ZM12.4934 14.677C12.4934 15.0205 12.2153 15.2989 11.8723 15.2989C11.5293 15.2989 11.2513 15.0205 11.2513 14.677V13.8478C11.2513 13.5045 11.5293 13.2259 11.8723 13.2259C12.2153 13.2259 12.4934 13.5045 12.4934 13.8478V14.677ZM16.0157 17.9937C16.0157 18.3373 15.7375 18.6157 15.3946 18.6157C15.0516 18.6157 14.7736 18.3373 14.7736 17.9937V17.1645C14.7736 16.8212 15.0516 16.5426 15.3946 16.5426C15.7375 16.5426 16.0157 16.8212 16.0157 17.1645V17.9937ZM16.0157 14.677C16.0157 15.0205 15.7375 15.2989 15.3946 15.2989C15.0516 15.2989 14.7736 15.0205 14.7736 14.677V13.8478C14.7736 13.5045 15.0516 13.2259 15.3946 13.2259C15.7375 13.2259 16.0157 13.5045 16.0157 13.8478V14.677ZM18.4999 17.9937C18.4999 18.3373 18.2217 18.6157 17.8788 18.6157C17.5358 18.6157 17.2578 18.3373 17.2578 17.9937V17.1645C17.2578 16.8212 17.5358 16.5426 17.8788 16.5426C18.2217 16.5426 18.4999 16.8212 18.4999 17.1645V17.9937ZM18.4999 14.677C18.4999 15.0205 18.2217 15.2989 17.8788 15.2989C17.5358 15.2989 17.2578 15.0205 17.2578 14.677V13.8478C17.2578 13.5045 17.5358 13.2259 17.8788 13.2259C18.2217 13.2259 18.4999 13.5045 18.4999 13.8478V14.677Z" />
</svg>
