<svg width="18" height="18" viewBox="0 0 18 18" fill="none" xmlns="http://www.w3.org/2000/svg">
<path d="M12.1908 5.80941C11.3813 4.99988 10.2385 4.47607 9.00037 4.47607C7.76228 4.47607 6.61942 4.97607 5.8099 5.80941C5.00037 6.61893 4.47656 7.76179 4.47656 8.99988C4.47656 10.238 5.00037 11.3808 5.8099 12.1904C6.61942 12.9999 7.76228 13.5237 9.00037 13.5237C10.2385 13.5237 11.3813 13.0237 12.1908 12.1904C13.0004 11.3808 13.5242 10.238 13.5242 8.99988C13.5242 7.76179 13.0242 6.61893 12.1908 5.80941ZM11.3337 11.3332C10.7385 11.9285 9.90513 12.2856 9.00037 12.2856C8.09561 12.2856 7.26228 11.9285 6.66704 11.3332C6.0718 10.738 5.71466 9.90464 5.71466 8.99988C5.71466 8.09512 6.0718 7.26179 6.66704 6.66655C7.26228 6.07131 8.09561 5.71417 9.00037 5.71417C9.90513 5.71417 10.7385 6.07131 11.3337 6.66655C11.9289 7.26179 12.2861 8.09512 12.2861 8.99988C12.2861 9.90464 11.9289 10.738 11.3337 11.3332Z" fill="#1A2941"/>
<path d="M17.3801 8.38086H15.5468C15.2134 8.38086 14.9277 8.66657 14.9277 8.99991C14.9277 9.33324 15.2134 9.61895 15.5468 9.61895H17.3801C17.7134 9.61895 17.9992 9.33324 17.9992 8.99991C17.9992 8.66657 17.7134 8.38086 17.3801 8.38086Z" fill="#1A2941"/>
<path d="M8.99991 14.9285C8.66657 14.9285 8.38086 15.2142 8.38086 15.5475V17.3808C8.38086 17.7142 8.66657 17.9999 8.99991 17.9999C9.33324 17.9999 9.61895 17.7142 9.61895 17.3808V15.5475C9.61895 15.2142 9.33324 14.9285 8.99991 14.9285Z" fill="#1A2941"/>
<path d="M15.357 14.5001L14.0474 13.1905C13.8331 12.9524 13.4284 12.9524 13.1903 13.1905C12.9522 13.4286 12.9522 13.8096 13.1903 14.0477L14.4998 15.3572C14.7379 15.5953 15.1189 15.5953 15.357 15.3572C15.5951 15.1191 15.5951 14.7382 15.357 14.5001Z" fill="#1A2941"/>
<path d="M8.99991 0C8.66657 0 8.38086 0.285714 8.38086 0.619048V2.45238C8.38086 2.78571 8.66657 3.07143 8.99991 3.07143C9.33324 3.07143 9.61895 2.78571 9.61895 2.45238V0.619048C9.61895 0.285714 9.33324 0 8.99991 0Z" fill="#1A2941"/>
<path d="M15.3804 2.64293C15.1423 2.40483 14.7613 2.40483 14.5233 2.64293L13.2137 3.95245C12.9756 4.19055 12.9756 4.5715 13.2137 4.80959C13.428 5.04769 13.8328 5.04769 14.0709 4.80959L15.3804 3.50007C15.6185 3.26197 15.6185 2.88102 15.3804 2.64293Z" fill="#1A2941"/>
<path d="M2.45238 8.38086H0.619048C0.285714 8.38086 0 8.66657 0 8.99991C0 9.33324 0.261905 9.61895 0.619048 9.61895H2.45238C2.78571 9.61895 3.07143 9.33324 3.07143 8.99991C3.07143 8.66657 2.78571 8.38086 2.45238 8.38086Z" fill="#1A2941"/>
<path d="M4.78664 13.1905C4.57236 12.9524 4.1676 12.9524 3.9295 13.1905L2.61998 14.5001C2.38188 14.7382 2.38188 15.1191 2.61998 15.3572C2.85807 15.5953 3.23903 15.5953 3.47712 15.3572L4.78664 14.0477C5.02474 13.8096 5.02474 13.4286 4.78664 13.1905Z" fill="#1A2941"/>
<path d="M4.78664 3.95245L3.47712 2.64293C3.23903 2.40483 2.85807 2.40483 2.61998 2.64293C2.38188 2.88102 2.38188 3.26197 2.61998 3.50007L3.9295 4.80959C4.1676 5.04769 4.54855 5.04769 4.78664 4.80959C5.02474 4.5715 5.02474 4.19055 4.78664 3.95245Z" fill="#1A2941"/>
</svg>
