<svg width="41" height="41" viewBox="0 0 41 41" fill="none" xmlns="http://www.w3.org/2000/svg">
<path d="M26.76 2.3241H2.87695V14.4661H26.76V2.3241ZM21.1056 13.5273V8.86635H25.5468V13.5273H21.1056ZM25.5468 7.92292L21.1056 7.91038V3.24895H25.5468V7.92292ZM15.4278 13.5273V8.86635H19.869V13.5273H15.4278ZM19.869 7.92292L15.4278 7.91038V3.24895H19.869V7.92292ZM9.74995 13.5273V8.86635H14.2092V13.5273H9.74995ZM14.2092 7.92292L9.74995 7.91038V3.24895H14.2092V7.92292ZM4.07215 13.5273V8.86635H8.53135V13.5273H4.07215ZM8.53135 7.92292L4.07215 7.91038V3.24895H8.53135V7.92292Z" fill="#CFA46E"/>
<path d="M38.0803 2.3241H14.1973V14.4661H38.0803V2.3241ZM32.4259 13.5273V8.86635H36.8671V13.5273H32.4259ZM36.8671 7.92292L32.4259 7.91038V3.24895H36.8671V7.92292ZM26.7481 13.5273V8.86635H31.1893V13.5273H26.7481ZM31.1893 7.92292L26.7481 7.91038V3.24895H31.1893V7.92292ZM21.0703 13.5273V8.86635H25.5295V13.5273H21.0703ZM25.5295 7.92292L21.0703 7.91038V3.24895H25.5295V7.92292ZM15.3925 13.5273V8.86635H19.8517V13.5273H15.3925ZM19.8517 7.92292L15.3925 7.91038V3.24895H19.8517V7.92292Z" fill="#CFA46E"/>
<path d="M26.76 14.7563H2.87695V37.9706H26.76V14.7563ZM25.5468 36.7872H15.4278V15.3274H25.5468V36.7872ZM14.2092 36.7872H4.07215V15.3274H14.2092V36.7872Z" fill="#CFA46E"/>
<path d="M38.0803 14.7563H14.1973V37.9706H38.0803V14.7563ZM36.8671 36.7872H26.7481V15.3274H36.8671V36.7872ZM25.5295 36.7872H15.3925V15.3274H25.5295V36.7872Z" fill="#CFA46E"/>
<path d="M39.4684 1H1.53072C1.23691 1 1 1.12965 1 1.29043V39.7096C1 39.8703 1.23691 40 1.53072 40H39.4693C39.7631 40 40 39.8703 40 39.7096V1.29043C39.9992 1.12965 39.7622 1 39.4684 1ZM39.2035 39.5641H1.79566V1.43542H39.2035V39.5641Z" fill="#CFA46E" stroke="#CFA46E"/>
</svg>
