<svg width="39" height="39" viewBox="0 0 39 39" fill="none" xmlns="http://www.w3.org/2000/svg">
<path d="M10.2984 6.45937H6.09375C5.72813 6.45937 5.48438 6.70312 5.48438 7.06874V13.4062C5.48438 13.7719 5.72813 14.0156 6.09375 14.0156H10.2984C10.6641 14.0156 10.9078 13.7719 10.9078 13.4062V7.06874C10.9078 6.70312 10.6031 6.45937 10.2984 6.45937ZM9.68906 12.7969H6.70313V7.67812H9.68906V12.7969Z" fill="#CFA46E"/>
<path d="M25.35 6.45937H21.1453C20.7797 6.45937 20.5359 6.70312 20.5359 7.06874V13.4062C20.5359 13.7719 20.7797 14.0156 21.1453 14.0156H25.35C25.7156 14.0156 25.9594 13.7719 25.9594 13.4062V7.06874C25.9594 6.70312 25.7156 6.45937 25.35 6.45937ZM24.7406 12.7969H21.7547V7.67812H24.7406V12.7969Z" fill="#CFA46E"/>
<path d="M17.8547 6.45937H13.65C13.2844 6.45937 13.0406 6.70312 13.0406 7.06874V13.4062C13.0406 13.7719 13.2844 14.0156 13.65 14.0156H17.8547C18.2203 14.0156 18.4641 13.7719 18.4641 13.4062V7.06874C18.4641 6.70312 18.1594 6.45937 17.8547 6.45937ZM17.2453 12.7969H14.2594V7.67812H17.2453V12.7969Z" fill="#CFA46E"/>
<path d="M32.9063 6.45937H28.7016C28.3359 6.45937 28.0922 6.70312 28.0922 7.06874V13.4062C28.0922 13.7719 28.3359 14.0156 28.7016 14.0156H32.9063C33.2719 14.0156 33.5156 13.7719 33.5156 13.4062V7.06874C33.5156 6.70312 33.2719 6.45937 32.9063 6.45937ZM32.2969 12.7969H29.3109V7.67812H32.2969V12.7969Z" fill="#CFA46E"/>
<path d="M10.2984 16.0875H6.09375C5.72813 16.0875 5.48438 16.3312 5.48438 16.6969V23.0344C5.48438 23.4 5.72813 23.6437 6.09375 23.6437H10.2984C10.6641 23.6437 10.9078 23.4 10.9078 23.0344V16.6969C10.9078 16.3312 10.6031 16.0875 10.2984 16.0875ZM9.68906 22.3641H6.70313V17.2453H9.68906V22.3641Z" fill="#CFA46E"/>
<path d="M25.35 16.0875H21.1453C20.7797 16.0875 20.5359 16.3312 20.5359 16.6969V23.0344C20.5359 23.4 20.7797 23.6437 21.1453 23.6437H25.35C25.7156 23.6437 25.9594 23.4 25.9594 23.0344V16.6969C25.9594 16.3312 25.7156 16.0875 25.35 16.0875ZM24.7406 22.3641H21.7547V17.2453H24.7406V22.3641Z" fill="#CFA46E"/>
<path d="M17.8547 16.0875H13.65C13.2844 16.0875 13.0406 16.3312 13.0406 16.6969V23.0344C13.0406 23.4 13.2844 23.6437 13.65 23.6437H17.8547C18.2203 23.6437 18.4641 23.4 18.4641 23.0344V16.6969C18.4641 16.3312 18.1594 16.0875 17.8547 16.0875ZM17.2453 22.3641H14.2594V17.2453H17.2453V22.3641Z" fill="#CFA46E"/>
<path d="M32.9063 16.0875H28.7016C28.3359 16.0875 28.0922 16.3312 28.0922 16.6969V23.0344C28.0922 23.4 28.3359 23.6437 28.7016 23.6437H32.9063C33.2719 23.6437 33.5156 23.4 33.5156 23.0344V16.6969C33.5156 16.3312 33.2719 16.0875 32.9063 16.0875ZM32.2969 22.3641H29.3109V17.2453H32.2969V22.3641Z" fill="#CFA46E"/>
<path d="M10.2984 25.6547H6.09375C5.72813 25.6547 5.48438 25.8984 5.48438 26.2641V32.6016C5.48438 32.9672 5.72813 33.2109 6.09375 33.2109H10.2984C10.6641 33.2109 10.9078 32.9672 10.9078 32.6016V26.2641C10.9078 25.8984 10.6031 25.6547 10.2984 25.6547ZM9.68906 31.9922H6.70313V26.8734H9.68906V31.9922Z" fill="#CFA46E"/>
<path d="M32.9063 25.6547H28.7016C28.3359 25.6547 28.0922 25.8984 28.0922 26.2641V32.6016C28.0922 32.9672 28.3359 33.2109 28.7016 33.2109H32.9063C33.2719 33.2109 33.5156 32.9672 33.5156 32.6016V26.2641C33.5156 25.8984 33.2719 25.6547 32.9063 25.6547ZM32.2969 31.9922H29.3109V26.8734H32.2969V31.9922Z" fill="#CFA46E"/>
<path d="M38.3906 37.7812H36.5625V4.63125H36.8063C37.3547 4.63125 37.8422 4.14375 37.8422 3.59531V1.03594C37.8422 0.4875 37.3547 0 36.8063 0H2.19375C1.58438 0 1.15781 0.4875 1.15781 1.03594V3.59531C1.15781 4.14375 1.64531 4.63125 2.19375 4.63125H2.4375V37.7812H0.609375C0.24375 37.7812 0 38.025 0 38.3906C0 38.7563 0.24375 39 0.609375 39C11.2125 39 24.1922 39 38.3906 39C38.7563 39 39 38.7563 39 38.3906C39 38.025 38.7563 37.7812 38.3906 37.7812ZM2.37656 1.21875H36.6844V3.4125C28.8844 3.4125 10.1156 3.4125 2.37656 3.4125V1.21875ZM14.2594 37.7812V26.8734H24.7406V37.7812H14.2594ZM25.9594 37.7812V26.2641C25.9594 25.8984 25.7156 25.6547 25.35 25.6547H13.65C13.2844 25.6547 13.0406 25.8984 13.0406 26.2641V37.7812H3.65625V4.63125H35.3438V37.7812H25.9594Z" fill="#CFA46E"/>
</svg>
