<svg width="39" height="39" viewBox="0 0 39 39" fill="none" xmlns="http://www.w3.org/2000/svg">
<path d="M0.650153 39H31.8506C32.2098 39 32.5008 38.709 32.5008 38.3501V32.5H37.0507C37.4098 32.5 37.7008 32.209 37.7008 31.8501V25.3498C37.7008 24.9909 37.4098 24.6999 37.0507 24.6999H32.5008V18.8497C32.5008 18.4906 32.2098 18.1996 31.8506 18.1996H30.6577C30.7494 17.7747 30.6524 17.3307 30.392 16.9826L27.4549 13.0674L28.8111 12.05C29.4137 11.599 29.7502 10.8759 29.7077 10.1243L29.6425 8.95371C29.6246 8.63622 29.7669 8.33093 30.0213 8.1402L31.3772 7.12317L31.9479 7.88371C32.0512 8.02148 32.205 8.11283 32.3758 8.13723C32.4062 8.14139 32.4368 8.14377 32.4678 8.14347C32.6085 8.14377 32.7454 8.09795 32.8578 8.01344L38.2209 3.99023C39.0821 3.34425 39.2567 2.1222 38.6107 1.26078L38.2495 0.778746C37.6026 -0.0814789 36.3812 -0.255547 35.5195 0.389547L30.157 4.41246C29.8698 4.62789 29.8115 5.03554 30.0269 5.32267L30.5973 6.08322L29.2414 7.10055C28.6388 7.55164 28.302 8.2744 28.3449 9.02602L28.4097 10.1966C28.4279 10.5141 28.2857 10.8197 28.0312 11.0101L26.6753 12.0274L23.7379 8.11223C23.4305 7.69596 22.9312 7.46654 22.4149 7.50433C21.9225 7.54004 21.4824 7.82569 21.2488 8.26101L15.9078 18.1996H0.650153C0.291006 18.1996 0 18.4906 0 18.8497V25.3498C0 25.7089 0.291006 25.9999 0.650153 25.9999H5.20003V31.2H0.650153C0.291006 31.2 0 31.491 0 31.8501V38.3501C0 38.709 0.291006 39 0.650153 39ZM36.2996 1.4292C36.5865 1.21377 36.9938 1.27179 37.2096 1.55893L37.5708 2.04097C37.7859 2.3281 37.7276 2.73516 37.4408 2.95058L32.5975 6.584L31.4564 5.06232L36.2996 1.4292ZM11.7004 32.5H20.8004V37.7H11.7004V32.5ZM16.9004 25.9999H26.0004V31.2H16.9004V25.9999ZM31.2008 37.7H22.1004V32.5H31.2008V37.7ZM36.4008 31.2H27.3005V25.9999H36.4008V31.2ZM31.2008 24.6999H22.1004V20.9147L28.7537 19.4996H31.2008V24.6999ZM22.3944 8.87694C22.4164 8.83142 22.4623 8.80226 22.5128 8.80077L22.5256 8.80017C22.5947 8.80136 22.6586 8.83558 22.6979 8.89212L25.6348 12.8073L22.9532 14.8191C22.6661 15.0345 22.6078 15.4419 22.8232 15.7293C23.0386 16.0164 23.446 16.0744 23.7334 15.8593L26.4149 13.8476L29.3521 17.7628C29.3988 17.8199 29.4125 17.897 29.3878 17.9663C29.3723 18.0145 29.3316 18.0499 29.2816 18.0588L16.3859 20.8011C16.3059 20.8136 16.2255 20.7794 16.1794 20.7127C16.1277 20.6502 16.1172 20.5633 16.1526 20.4901L22.3944 8.87694ZM15.1398 21.4929C15.4861 21.9693 16.0806 22.1963 16.6564 22.0725L20.8004 21.1912V24.6999H11.7004V19.4996H15.2088L15.0074 19.8745C14.7289 20.3931 14.7809 21.0266 15.1398 21.4929ZM1.30001 22.0999H2.60002C2.95916 22.0999 3.25017 21.8089 3.25017 21.4497C3.25017 21.0909 2.95916 20.7999 2.60002 20.7999H1.30001V19.4996H10.4004V24.6999H1.30001V22.0999ZM6.50004 25.9999H15.6004V31.2H6.50004V25.9999ZM1.30001 32.5H10.4004V37.7H1.30001V32.5Z" fill="#CFA46E"/>
</svg>
