<svg width="39" height="39" viewBox="0 0 39 39" fill="none" xmlns="http://www.w3.org/2000/svg">
<path d="M13.3156 20.9559C13.6312 20.9559 13.8869 20.7002 13.8869 20.3847C13.8869 20.0691 13.6312 19.8134 13.3156 19.8134H10.7368V18.1001C10.7368 17.7845 10.4811 17.5288 10.1655 17.5288C9.84991 17.5288 9.5942 17.7845 9.5942 18.1001V19.8134H7.58653V13.2158C7.58653 12.7954 7.25999 12.4662 6.8431 12.4662H0.985025C0.513217 12.4662 0.143555 12.8747 0.143555 13.3962V38.07C0.143555 38.5915 0.513217 39 0.985025 39H13.0455C13.5094 39 13.8869 38.5828 13.8869 38.07V32.1467C13.8869 31.8311 13.6312 31.5754 13.3156 31.5754C13.0001 31.5754 12.7444 31.8311 12.7444 32.1467V37.8574H1.28621V13.6088H6.44403V15.0465H4.5143C4.19872 15.0465 3.94301 15.3022 3.94301 15.6177C3.94301 15.9333 4.19872 16.189 4.5143 16.189H6.44396V18.2635H4.71257C4.39699 18.2635 4.14128 18.5192 4.14128 18.8348C4.14128 19.1504 4.39699 19.4061 4.71257 19.4061H6.44396V24.4539C6.44396 24.7695 6.69967 25.0252 7.01525 25.0252H12.7444V29.4904C12.7444 29.806 13.0001 30.0617 13.3156 30.0617C13.6312 30.0617 13.8869 29.806 13.8869 29.4904V24.6322C13.8869 24.1692 13.4886 23.8826 13.1196 23.8826H10.7368V20.9559H13.3156ZM9.5942 23.8826H7.58653V20.9559H9.59412L9.5942 23.8826Z" fill="#CFA46E"/>
<path d="M32.7967 26.4229V18.4331C32.7967 18.4329 32.7967 18.4326 32.7967 18.4324V10.4426C32.7967 10.4424 32.7967 10.4421 32.7967 10.4419V7.01817H33.9094C34.4286 7.01817 34.851 6.5961 34.851 6.0773V6.02474H37.8112C38.0642 6.02474 38.2964 5.94278 38.4772 5.80674C38.51 5.7848 38.541 5.7592 38.5696 5.72973C38.5761 5.7231 38.5817 5.71594 38.5877 5.70908C38.7534 5.54173 38.8552 5.32144 38.8552 5.0796V1.93857C38.8552 1.41733 38.3869 0.993358 37.8112 0.993358H34.8511V0.940875C34.8511 0.422068 34.4287 0 33.9095 0H26.644C26.1248 0 25.7024 0.422068 25.7024 0.940875V0.993358H18.2662C18.2655 0.993358 18.2649 0.993358 18.2642 0.993358H9.61197C9.03512 0.993358 8.56582 1.41733 8.56582 1.93857V5.07952C8.56582 5.60069 9.03512 6.02466 9.61197 6.02466H12.3303V7.99409L10.2169 10.2403H9.69484C9.19485 10.2403 8.78809 10.6468 8.78809 11.1464V13.8179C8.78809 14.3186 9.19485 14.7261 9.69484 14.7261H16.1064C16.6076 14.7261 17.0153 14.3186 17.0153 13.8179V11.1464C17.0153 10.6468 16.6076 10.2403 16.1064 10.2403H15.5864L13.473 7.99409V6.02474H25.7024V6.0773C25.7024 6.5961 26.1249 7.01817 26.6441 7.01817H27.7567V29.8472H25.9664C25.1745 29.8472 24.5302 30.4906 24.5302 31.2815V35.0076H23.9034C22.8004 35.0076 21.9029 35.9036 21.9029 37.0049V38.0461C21.9029 38.5721 22.3322 38.9999 22.8599 38.9999H37.8745C38.4009 38.9999 38.8291 38.5721 38.8291 38.0461V37.0049C38.8291 35.9036 37.9327 35.0076 36.8309 35.0076H36.2041V31.2815C36.2041 30.4906 35.5588 29.8472 34.7657 29.8472H32.7967V26.4236C32.7967 26.4234 32.7967 26.4232 32.7967 26.4229ZM37.7127 2.13616V4.1014L35.6884 2.13609L37.7127 2.13616ZM34.8511 2.91556L36.8766 4.88216H34.8511V2.91556ZM9.7084 4.88186V2.13594H10.0251L12.8526 4.88193L9.7084 4.88186ZM15.8727 11.383V13.5836H9.93059V11.383H15.8727ZM14.0175 10.2404H11.7857L12.9016 9.05432L14.0175 10.2404ZM11.6651 2.13594H16.857L14.261 4.65707L11.6651 2.13594ZM15.6694 4.88208L18.2652 2.36102L20.8612 4.88216L15.6694 4.88208ZM19.6734 2.13594H24.8654L22.2694 4.65707L19.6734 2.13594ZM23.6776 4.88216L25.7024 2.91586V4.88216H23.6776ZM34.7656 30.9898C34.9288 30.9898 35.0614 31.1207 35.0614 31.2816V35.0077H31.7353C31.4197 35.0077 31.164 35.2634 31.164 35.579C31.164 35.8946 31.4197 36.1503 31.7353 36.1503H36.8308C37.3027 36.1503 37.6865 36.5336 37.6865 37.005V37.8574H23.0455V37.005C23.0455 36.5336 23.4304 36.1503 23.9034 36.1503H28.9685C29.2841 36.1503 29.5398 35.8946 29.5398 35.579C29.5398 35.2634 29.2841 35.0077 28.9685 35.0077H25.6728V31.2816C25.6728 31.1235 25.8073 30.9898 25.9664 30.9898H34.7656ZM31.4274 10.4422L28.8993 13.0337V7.85058L31.4274 10.4422ZM29.6833 7.01817H31.6541V9.03848L29.6833 7.01817ZM31.6541 11.8459V17.0289L29.126 14.4373L31.6541 11.8459ZM31.4274 18.4327L28.8993 21.0243V15.8411L31.4274 18.4327ZM31.6541 19.8365V25.0196L29.1261 22.428L31.6541 19.8365ZM31.4274 26.4233L28.8993 29.0149V23.8317L31.4274 26.4233ZM31.6541 27.827V29.8473H29.6833L31.6541 27.827ZM28.3355 5.8756C28.3351 5.8756 28.3346 5.8756 28.3342 5.8756H26.8449V1.14258H33.7084V5.8756H28.3355Z" fill="#CFA46E"/>
<path d="M11.3749 27.5862C11.3749 27.1153 10.9925 26.7323 10.5226 26.7323H3.50762C3.03642 26.7323 2.65313 27.1153 2.65313 27.5862V29.9164C2.65313 30.3873 3.03642 30.7703 3.50762 30.7703H10.5226C10.9926 30.7703 11.3749 30.3873 11.3749 29.9164V27.5862ZM6.44374 29.6277H3.79571V27.8749H6.44382L6.44374 29.6277ZM10.2323 29.6277H7.58632V27.8749H10.2322L10.2323 29.6277Z" fill="#CFA46E"/>
<path d="M10.5225 32.4775H3.50762C3.03642 32.4775 2.65313 32.8605 2.65313 33.3314V35.6616C2.65313 36.1324 3.03642 36.5154 3.50762 36.5154H10.5226C10.9926 36.5154 11.3749 36.1324 11.3749 35.6616V33.3314C11.3749 32.8605 10.9925 32.4775 10.5225 32.4775ZM6.44374 35.3729H3.79571V33.6201H6.44382L6.44374 35.3729ZM10.2323 35.3729H7.58632V33.6201H10.2322L10.2323 35.3729Z" fill="#CFA46E"/>
</svg>
