<svg width="36" height="39" viewBox="0 0 36 39" fill="none" xmlns="http://www.w3.org/2000/svg">
<path d="M10.3769 39C10.5188 39 10.6619 38.9971 10.8047 38.9919H35.4019C35.7322 38.9919 36 38.7276 36 38.401V6.97366C36 6.64705 35.7322 6.38276 35.4019 6.38276H15.2064C14.8169 2.81428 11.5427 0 7.62474 0C5.59977 0 3.68986 0.732278 2.24487 2.06238C0.797255 3.4046 0 5.18942 0 7.08734V29.7054C0 29.7107 0.0028473 29.7149 0.00299336 29.7201C0.00317589 29.7245 0.00273787 29.7288 0.00292035 29.7331C0.233336 34.9226 4.8542 39.0006 10.3769 39ZM34.8038 37.8101L10.7816 37.8107C5.71132 37.9965 1.40556 34.3565 1.19793 29.6812C1.12287 27.9916 1.74053 26.3545 2.9367 25.0711C4.24239 23.6706 6.14003 22.8235 8.14281 22.7474C11.2699 22.6279 13.9251 24.8709 14.053 27.7463C14.0986 28.7706 13.7236 29.7643 12.997 30.5433C12.2 31.3985 11.0401 31.9161 9.81529 31.9629C7.93517 32.0356 6.33277 30.6899 6.25597 28.9662C6.22939 28.3678 6.4493 27.7862 6.87537 27.3291C7.34701 26.8231 8.03446 26.5172 8.76104 26.4895C9.8626 26.4388 10.772 27.2178 10.8158 28.2045C10.8304 28.5306 10.7098 28.8479 10.4765 29.0984C10.213 29.3806 9.82755 29.5519 9.419 29.5675C9.089 29.5802 8.83172 29.8543 8.84456 30.1804C8.85712 30.5064 9.12667 30.7851 9.46514 30.7482C10.1897 30.7205 10.8789 30.4112 11.3564 29.8988C11.807 29.4152 12.0394 28.7949 12.0108 28.1526C11.9384 26.519 10.4522 25.2379 8.71519 25.3089C7.67234 25.3487 6.68117 25.793 5.99547 26.5288C5.35241 27.2189 5.02037 28.103 5.06096 29.0182C5.16639 31.3887 7.3365 33.2393 9.86114 33.1435C11.4022 33.0846 12.8659 32.4291 13.8769 31.3443C14.8127 30.3402 15.2976 29.0574 15.2478 27.7286C15.2478 27.7257 15.2495 27.7233 15.2495 27.7204V7.56456H34.8038V37.8101ZM1.19617 7.08734C1.19617 5.51892 1.85939 4.04051 3.06169 2.92565C4.28298 1.80098 5.90348 1.1818 7.62474 1.1818C11.1052 1.1818 13.9876 3.7834 14.0529 6.97114C14.0529 6.97204 14.0524 6.97276 14.0524 6.97366C14.0524 6.97518 14.0533 6.97644 14.0533 6.97795V24.3596C12.7612 22.6015 10.5592 21.477 8.09666 21.5667C5.7782 21.6544 3.57655 22.64 2.0568 24.2708C1.73169 24.6196 1.44729 24.993 1.19617 25.3822V7.08734Z" fill="#CFA46E"/>
</svg>
