<svg width="9" height="19" viewBox="0 0 9 19" fill="none" xmlns="http://www.w3.org/2000/svg">
<path d="M8.17734 1.24942H0.82265V2.30719H8.17734V1.24942Z" />
<path d="M8.17735 15.4235H0.82265V17.7506H8.17735V15.4235Z" />
<path d="M7.29887 0.509203C8.17387 0.526338 8.96042 1.29787 8.97778 2.24775C9.00741 7.08237 9.00741 11.9176 8.97778 16.7523C8.96103 17.6613 8.20166 18.473 7.29887 18.4908C5.43302 18.5031 3.56698 18.5031 1.70113 18.4908C0.82776 18.4737 0.0397869 17.7019 0.0222173 16.7523C-0.00740577 11.9176 -0.00740577 7.08237 0.0222173 2.24775C0.0389697 1.34209 0.784041 0.527185 1.70113 0.509203C3.56698 0.496932 5.43302 0.496932 7.29887 0.509203ZM1.72462 1.56676C1.37099 1.56908 1.05514 1.88366 1.04391 2.25198C0.955038 7.08618 0.895996 11.9246 1.04411 16.7571C1.05943 17.1155 1.36588 17.4263 1.71421 17.4332C3.57719 17.4453 5.4414 17.4937 7.30357 17.4326C7.64944 17.4167 7.94976 17.0994 7.9563 16.7389C7.98592 11.9071 8.104 7.07243 7.95589 2.24288C7.94057 1.88451 7.63412 1.57374 7.2858 1.56676C5.43221 1.5547 3.57842 1.56676 1.72462 1.56676Z" />
</svg>
