<svg width="20" height="15" viewBox="0 0 20 15" fill="none" xmlns="http://www.w3.org/2000/svg">
<path d="M13.487 6.61402L8.9305 4.22009C8.66851 4.08244 8.35883 4.08758 8.10203 4.23368C7.84507 4.37994 7.6918 4.63831 7.6918 4.92509V9.67186C7.6918 9.95727 7.84412 10.2152 8.09935 10.3616C8.23263 10.4381 8.38039 10.4764 8.52846 10.4764C8.6641 10.4764 8.80005 10.4443 8.92515 10.3796L13.4818 8.0269C13.7523 7.88714 13.9212 7.61713 13.9224 7.32205C13.9235 7.02696 13.7567 6.75575 13.487 6.61402ZM8.90045 9.07474V5.52705L12.3059 7.3163L8.90045 9.07474Z" stroke="transparent"/>
<path d="M19.8528 3.54028L19.8518 3.53122C19.8349 3.37181 19.6663 1.95395 18.9702 1.23278C18.1656 0.384534 17.2534 0.281488 16.8148 0.23208C16.7784 0.228001 16.7452 0.224223 16.7154 0.220295L16.6805 0.216669C14.0365 0.0262904 10.0434 0.000302188 10.0034 0.000151094L9.99992 0L9.99641 0.000151094C9.95644 0.000302188 5.96339 0.0262904 3.29557 0.216669L3.26032 0.220295C3.23194 0.224072 3.20066 0.227547 3.16663 0.231476C2.73298 0.281035 1.83058 0.384232 1.0237 1.26315C0.360715 1.97661 0.169066 3.36411 0.149382 3.52004L0.147094 3.54028C0.141143 3.60661 0 5.18569 0 6.77097V8.2529C0 9.83818 0.141143 11.4173 0.147094 11.4837L0.148162 11.4937C0.165099 11.6505 0.333555 13.0424 1.02645 13.7639C1.78298 14.5837 2.73954 14.6922 3.25406 14.7505C3.33539 14.7598 3.40543 14.7676 3.45319 14.7759L3.49942 14.7823C5.02605 14.9261 9.81255 14.997 10.0155 14.9998L10.0216 15L10.0277 14.9998C10.0677 14.9997 14.0606 14.9737 16.7046 14.7833L16.7395 14.7797C16.7729 14.7753 16.8105 14.7714 16.8517 14.7672C17.2829 14.7218 18.1804 14.6277 18.9761 13.7607C19.6391 13.0471 19.8309 11.6596 19.8505 11.5038L19.8528 11.4836C19.8587 11.4171 20 9.83818 20 8.2529V6.77097C19.9998 5.18569 19.8587 3.60676 19.8528 3.54028ZM18.8278 8.2529C18.8278 9.72017 18.6984 11.2313 18.6862 11.37C18.6365 11.7521 18.4343 12.6299 18.1113 12.9776C17.6132 13.5202 17.1016 13.574 16.7281 13.6131C16.6829 13.6178 16.6411 13.6223 16.6033 13.627C14.0459 13.8101 10.2036 13.8382 10.0266 13.8393C9.82811 13.8364 5.11166 13.765 3.63156 13.6288C3.55573 13.6166 3.47379 13.6072 3.38743 13.5975C2.94935 13.5478 2.34968 13.4798 1.88857 12.9776L1.87773 12.9661C1.56035 12.6387 1.36397 11.8178 1.31408 11.3745C1.30477 11.2696 1.17202 9.74072 1.17202 8.2529V6.77097C1.17202 5.30536 1.30111 3.79593 1.31362 3.65436C1.37298 3.20425 1.57897 2.37958 1.88857 2.04626C2.40187 1.48722 2.94309 1.42527 3.30106 1.38432C3.33524 1.38039 3.36713 1.37677 3.39658 1.37299C5.99117 1.18896 9.86107 1.16161 9.99992 1.16055C10.1388 1.16146 14.0073 1.18896 16.5789 1.37299C16.6104 1.37692 16.6449 1.38085 16.682 1.38508C17.0502 1.42663 17.6067 1.48948 18.1174 2.02889L18.1221 2.03388C18.4395 2.3613 18.6359 3.19654 18.6858 3.64877C18.6946 3.74773 18.8278 5.27998 18.8278 6.77097V8.2529Z" stroke="transparent" />
</svg>
