<svg width="163" height="149" viewBox="0 0 163 149" fill="none" xmlns="http://www.w3.org/2000/svg">
<path d="M17.8398 148.542C21.8851 144.442 26.6065 141.126 31.4968 138.082C33.961 136.588 36.5161 135.249 39.0949 133.929C40.3888 133.282 41.7172 132.706 43.0402 132.116L47.0673 130.473C57.9002 126.287 69.5835 123.999 81.3341 123.916C93.0884 123.81 104.841 126.077 115.694 130.287C126.519 134.583 136.485 140.753 144.794 148.578L144.507 149C142.122 147.519 139.793 145.947 137.363 144.544L133.687 142.496C133.071 142.16 132.467 141.802 131.842 141.484L129.948 140.568L126.17 138.72C124.891 138.147 123.59 137.626 122.299 137.077C119.743 135.921 117.058 135.094 114.427 134.135C103.765 130.691 92.5686 128.897 81.3668 129.015C70.1723 129.095 58.9851 130.902 48.3122 134.342C42.9693 136.039 37.7537 138.136 32.7016 140.57C27.6459 142.983 22.7084 145.718 18.1451 148.949L17.8398 148.542Z" fill="#C4C7CC"/>
<path d="M162.323 130.814C156.833 127.599 151.954 123.536 147.2 119.334C144.883 117.175 142.606 114.962 140.399 112.676C139.278 111.549 138.215 110.368 137.168 109.176C136.105 107.996 135.066 106.793 134.046 105.574C125.877 95.8331 118.774 85.1329 113.107 73.7021C107.35 62.3168 103.072 50.1991 100.148 37.8343C97.3096 25.4476 95.8758 12.752 96.43 0.145503L96.9389 0.0964355C97.3405 3.18583 97.6458 6.28612 98.1274 9.36098C98.6417 12.4322 99.0596 15.518 99.723 18.5619L100.621 23.1433L101.684 27.6883C102.34 30.7323 103.25 33.7108 104.043 36.7203C105.829 42.6792 107.732 48.6108 110.058 54.3843L110.899 56.5596L111.812 58.7077C112.426 60.1361 113.013 61.5772 113.649 62.9965C114.955 65.8205 116.238 68.6537 117.667 71.4178C123.19 82.5669 129.79 93.1798 137.283 103.117C141.032 108.083 145.019 112.872 149.226 117.455C153.446 122.02 157.842 126.465 162.634 130.411L162.323 130.814Z" fill="#C4C7CC"/>
<path d="M0.310761 130.718C5.8008 127.503 10.6802 123.439 15.4342 119.238C17.7513 117.079 20.0284 114.865 22.2345 112.579C23.3558 111.453 24.4189 110.271 25.4657 109.079C26.5288 107.9 27.5683 106.697 28.5878 105.477C36.7565 95.7367 43.8603 85.0365 49.5266 73.6057C55.2838 62.2204 59.5617 50.1027 62.4857 37.7379C65.3243 25.3512 66.7582 12.6556 66.2039 0.0490649L65.6951 0C65.2934 3.08939 64.9881 6.18969 64.5065 9.26455C63.9923 12.3358 63.5743 15.4215 62.911 18.4655L62.0132 23.0469L60.9501 27.5919C60.2941 30.6359 59.3836 33.6144 58.5913 36.6239C56.8049 42.5828 54.9022 48.5144 52.576 54.2879L51.7346 56.4632L50.8223 58.6113C50.2081 60.0396 49.6211 61.4808 48.9851 62.9001C47.6784 65.7241 46.3954 68.5573 44.967 71.3214C39.4443 82.4705 32.8439 93.0834 25.3512 103.02C21.6021 107.987 17.615 112.776 13.408 117.359C9.18822 121.924 4.7922 126.369 0 130.314L0.310761 130.718Z" fill="#C4C7CC"/>
</svg>
