<svg width="50" height="47" viewBox="0 0 50 47" fill="none" xmlns="http://www.w3.org/2000/svg">
<mask id="path-1-inside-1" fill="white">
<path d="M32.023 1.00544C37.1053 2.5768 41.4562 5.89507 44.2938 10.364C47.1315 14.8329 48.2698 20.1594 47.5044 25.3864C46.7389 30.6134 44.1198 35.3982 40.1177 38.881C36.1156 42.3637 30.9929 44.3162 25.67 44.3874C20.3472 44.4586 15.1733 42.644 11.078 39.2695C6.98267 35.8951 4.23447 31.1821 3.32724 25.9775C2.42001 20.7729 3.41321 15.4178 6.12838 10.8746C8.84354 6.33143 13.1027 2.89796 18.1404 1.19119L18.5659 2.42771C13.8248 4.034 9.81639 7.26534 7.26107 11.5411C4.70575 15.8168 3.77102 20.8566 4.62484 25.7548C5.47866 30.653 8.06506 35.0885 11.9193 38.2643C15.7735 41.4401 20.6428 43.1479 25.6523 43.0809C30.6617 43.0139 35.4829 41.1764 39.2494 37.8986C43.0159 34.6209 45.4808 30.1178 46.2012 25.1985C46.9216 20.2792 45.8502 15.2663 43.1797 11.0605C40.5091 6.85467 36.4143 3.73175 31.6313 2.25289L32.023 1.00544Z"/>
</mask>
<path d="M32.023 1.00544C37.1053 2.5768 41.4562 5.89507 44.2938 10.364C47.1315 14.8329 48.2698 20.1594 47.5044 25.3864C46.7389 30.6134 44.1198 35.3982 40.1177 38.881C36.1156 42.3637 30.9929 44.3162 25.67 44.3874C20.3472 44.4586 15.1733 42.644 11.078 39.2695C6.98267 35.8951 4.23447 31.1821 3.32724 25.9775C2.42001 20.7729 3.41321 15.4178 6.12838 10.8746C8.84354 6.33143 13.1027 2.89796 18.1404 1.19119L18.5659 2.42771C13.8248 4.034 9.81639 7.26534 7.26107 11.5411C4.70575 15.8168 3.77102 20.8566 4.62484 25.7548C5.47866 30.653 8.06506 35.0885 11.9193 38.2643C15.7735 41.4401 20.6428 43.1479 25.6523 43.0809C30.6617 43.0139 35.4829 41.1764 39.2494 37.8986C43.0159 34.6209 45.4808 30.1178 46.2012 25.1985C46.9216 20.2792 45.8502 15.2663 43.1797 11.0605C40.5091 6.85467 36.4143 3.73175 31.6313 2.25289L32.023 1.00544Z" stroke="#C4C7CC" stroke-width="2.63158" mask="url(#path-1-inside-1)"/>
<path d="M25.6574 0L19.7363 7.83333H31.5784L25.6574 0Z" fill="#1A2941"/>
<line x1="5.79659e-08" y1="21.5362" x2="6.57895" y2="21.5362" stroke="#C4C7CC" stroke-width="1.31579"/>
<line x1="43.4219" y1="21.5362" x2="50.0008" y2="21.5362" stroke="#C4C7CC" stroke-width="1.31579"/>
<line x1="24.3421" y1="46.9998" x2="24.3421" y2="40.472" stroke="#C4C7CC" stroke-width="1.31579"/>
</svg>
